<svg xmlns="http://www.w3.org/2000/svg" viewBox="-140 100 720 600" width="675" height="600" style="width:100%;height:100%;transform:translate3d(0,0,0);display:block"><defs><clipPath id="a"><path d="M0 0h600v700H0z"/></clipPath><clipPath id="e"><path fill="#fff" d="M-22.027-116.993v348.962h337.198v-348.962H-22.027"/></clipPath><clipPath id="c"><path d="M0 0h553v550H0z"/></clipPath><clipPath id="d"><path d="M0 0h500v600H0z"/></clipPath><clipPath id="b"><path fill="#fff" d="M-33.5-139.311v387.612h375.304v-387.612H-33.5"/></clipPath><mask id="f" mask-type="alpha"><g style="display:block"><path fill="#CBE3D5" d="M0-49.575C27.36-49.575 49.575-27.36 49.575 0 49.575 27.36 27.36 49.575 0 49.575-27.36 49.575-49.575 27.36-49.575 0c0-27.36 22.215-49.575 49.575-49.575z" transform="rotate(-89.727 293.718 100.259) scale(1.02779)"/><path fill-opacity="0" stroke="#000" stroke-width="0" d="M141.11 393.253c.133-28.12 23.074-50.843 51.194-50.71 28.12.135 50.844 23.075 50.71 51.196-.134 28.12-23.075 50.843-51.195 50.709-28.12-.134-50.844-23.075-50.71-51.195z"/></g></mask></defs><g clip-path="url(#a)"><g style="display:block"><path fill="#559B75" d="M432.151 395.224c-1.824 1.086-5.057 4.42-5.267 4.56-.466.314-.948.593-1.43.873.027-.597.068-1.195.043-1.791a20.77 20.77 0 0 0-.47-3.627c-.273-1.234-.572-2.773-1.492-3.695-.812-.815-2.105-.29-2.029.89.057.852.449 1.614.72 2.406.155.458.292.921.415 1.388.452 1.724.651 3.522.598 5.303-.007.21-.056.416-.07.624-.37.212-.677.573-.78.97-.107.416-.142.776.052 1.177.028.056.064.095.094.146-.234.078-.452.21-.595.431-1.08 1.668-1.888 3.598-1.356 5.618.163.614.467 1.162.842 1.649-.06.04-.123.064-.182.107-.281.202-.536.44-.795.67-.254-.211-.723-.21-.843.173a4.974 4.974 0 0 0-.174.757c-.022-.392-.1-.775-.124-1.167-.028-.466-.064-.93-.097-1.393-.066-.899-.193-1.776-.167-2.68.016-.52-.824-.6-.908-.084-.174 1.082-.522 2.095-.806 3.152-.247.918-.5 1.85-.522 2.801-.017.72.038 1.45.188 2.155-.904-.027-1.745 1.138-1.209 1.997.833 1.335 2.544 2.156 4.055 2.394 3.314.522 6.592-1 9.346-2.686.192-.118.388-.244.508-.434 1.112-1.776-3.377-1.194-4.08-1.037.642-.144 1.195-1.125 1.566-1.601.605-.782 1.285-1.484 1.91-2.252 1.027-1.264 4.365-5.265 3.288-6.995-.895-1.438-4.299 2.208-5.129 2.708-.295.177-.606.323-.91.485.297-.654.566-1.315.85-1.973.533-1.229 1.872-2.14 2.608-3.28 1.253-1.935 2.311-4.045 3.015-6.244.309-.968 1.288-3.654-.663-2.495z"/><path fill="#559B75" d="M362.384 308.191c-4.3 4.614-4.928 11.266-1.885 19.957 1.6 4.364 3.58 8.247 5.944 11.651l19.792 31.869c7.62 11.981 13.77 21.432 18.45 28.355-1.304.111-2.59.294-3.857.548-.003.013-.003.023-.004.033-.28.056-.533.12-.761.194-.34.11-.515.27-.525.48-.017.107.02.218.113.329l-.224.107c.168.49.51.949 1.023 1.373.342.283.84.602 1.493.958 1.336.735 2.39 1.26 3.16 1.575.926.382 1.79.622 2.594.724.639.198 1.211.376 1.717.54.181.258.359.507.532.746a1.4 1.4 0 0 1-.118.015 8.995 8.995 0 0 1-.129-.066c-.371-.198-.741-.41-1.106-.632l.678.726c-1.226.06-2.456.06-3.692 0-.815-.052-1.272.135-1.37.564-.096.373.151.811.743 1.314 2.559 2.157 5.31 3.672 8.256 4.55.075.09.151.179.23.267-1.825.204-3.69.17-5.595-.1-.464-.066-.821-.083-1.075-.05-.392.045-.663.198-.81.453l2.021 1.294c1.063.88 1.895 1.533 2.497 1.959.996.703 1.931 1.255 2.803 1.652 1.325.587 2.739.927 4.242 1.019a13.62 13.62 0 0 0 1.66.015l.094.092c.086.085.17.167.252.245l.095.01c.516-.013.87-.04 1.061-.077.291-.075.482-.113.574-.115l.243.003c.12-.045.205-.081.312-.123 5.51-7.57 8.073-17.016 6.378-26.344-7.155-22.115-14.597-40.878-22.334-56.182-16.742-33.164-31.234-43.14-43.472-29.928z"/><path fill="#559B75" d="M403.275 403.326a.901.901 0 0 1-.12-.084c.01.007.021.01.033.008l.087.076z"/></g><g style="display:block"><path fill="#95CFAD" d="M229.052 317.038c-14.189 21.44-17.185 40.661-17.185 40.661l15.548 4.063s49.575-74.1 53.42-75.893c3.845-1.793-26.271.548-51.783 31.169z"/><path d="M229.052 317.038c-14.189 21.44-17.185 40.661-17.185 40.661l15.548 4.063s49.575-74.1 53.42-75.893c3.845-1.793-26.271.548-51.783 31.169z" fill="none"/></g><g style="display:block"><path fill="#559B75" d="M348.9 264.833a98.898 98.898 0 0 0-13.84.11c-9.988.781-19.501 3.085-28.54 6.913-7.42 3.134-14.522 7.297-21.31 12.485-17.606 13.456-31.996 32.909-43.17 58.36-12.271 27.917-18.223 51.284-17.854 70.103.007.075.01.16.01.252.115 4.626.604 8.98 1.471 13.06 2.633 12.387 8.923 22.697 18.867 30.932 6.047 5.017 13.456 9.273 22.227 12.769l.784.314c.054.003.11.026.167.067.26.086.516.178.77.28 4.466 1.753 8.746 3.193 12.84 4.318 8.223 2.247 15.721 3.228 22.493 2.944 10.189-.405 19.397-3.67 27.625-9.79 7.943-5.96 15.57-15.007 22.879-27.144 6.71-11.144 13.79-26.011 21.24-44.603a176.2 176.2 0 0 0 5.65-16.306c5.564-19.162 6.988-37.429 4.271-54.797a9.648 9.648 0 0 0-.099-.646c-1.21-7.492-3.171-14.58-5.885-21.259-4.245-10.476-10.312-19.961-18.203-28.456a105.472 105.472 0 0 0-10.452-9.79l-.856-.068a.599.599 0 0 0-.195.005c-.3-.028-.599-.046-.89-.053z"/><path fill="#95D0AD" d="M348.363 264.315c-.3-.03-.598-.046-.89-.053-15.12-.871-29.247 1.468-42.38 7.022-7.418 3.134-14.523 7.297-21.31 12.487-17.607 13.455-31.995 32.908-43.168 58.358-15.34 34.93-20.798 62.735-16.374 83.417 2.633 12.387 8.922 22.697 18.867 30.93 6.046 5.017 13.455 9.273 22.226 12.769l.786.315a.312.312 0 0 1 .166.067l82.272-205.316a.564.564 0 0 0-.195.004z"/><path fill="#67AB84" d="M361.219 383.43c7.736-19.562 9.831-39.08 6.286-58.55-3.454-19.241-11.645-34.793-24.57-46.657-17.553-.105-34.177 5.698-49.87 17.412-15.921 11.819-27.75 27.509-35.487 47.07-7.812 19.751-10.06 39.317-6.743 58.697 3.225 19.149 11.272 34.595 24.142 46.338 17.625.135 34.347-5.58 50.166-17.147 16.314-11.88 28.34-27.6 36.076-47.163z"/><path fill="#377958" d="M361.219 383.43c7.736-19.562 9.831-39.08 6.286-58.55-3.454-19.241-11.645-34.793-24.57-46.657-.436-.174-67.707 168.891-67.958 169.517 17.625.135 34.347-5.58 50.166-17.147 16.314-11.88 28.34-27.6 36.076-47.163z"/><path fill="#377958" d="m311.338 356.577 2.25-5.694-20.683 14.9 18.433-9.206zM304.976 372.667l1.294-3.274-11.393 8.187 10.1-4.913z"/><path fill="#67AB84" d="m310.732 356.831-2.42 6.123 6.56 12.78-4.14-18.903z"/><path fill="#428460" d="M385.892 326.408c-.108.007-.221.023-.34.048l-.195 5.18c-.12 3.873-.253 6.627-.399 8.261a736.763 736.763 0 0 1-2.36 22.896c-.56 4.695-1.543 11.823-2.953 21.382 2.483-5.184 3.884-9.119 4.204-11.802.9-7.57 1.858-15.127 2.872-22.674.43-3.205.431-8.035.004-14.49-.382-5.856-.66-8.79-.833-8.8z"/><path d="M278.477 292.903c.053-.305-2.302 1.425-7.065 5.188-5.127 4.036-8.747 7.386-10.86 10.049a170.203 170.203 0 0 0-13.024 18.84c-2.399 4.013-5.145 10.606-8.24 19.78.02.009 1.385-2.326 4.097-7.005 2.803-4.85 5.034-8.733 6.69-11.65 3.77-6.625 8.098-12.899 12.982-18.821 4.804-5.84 9.944-11.3 15.42-16.381z"/></g><g style="display:block"><path fill="#F0F0F0" d="M284.351 667.651H78.165c-16.876 0-30.557-13.681-30.557-30.558V152.808c0-16.876 13.681-30.557 30.557-30.557h206.186c16.877 0 30.557 13.681 30.557 30.557v484.285c0 16.877-13.68 30.558-30.557 30.558z"/><path fill="#919191" d="M280.361 652.633H84.212c-10.016 0-20.82-9.397-20.82-19.413V154.382c0-10.017 8.12-18.137 18.136-18.137h200.764c10.016 0 18.136 8.12 18.136 18.137v478.327c0 8.77-10.051 19.924-20.067 19.924z"/><path fill="#F0F0F0" d="M284.351 127.25c14.093 0 25.557 11.466 25.557 25.559v484.285c0 14.093-11.464 25.558-25.557 25.558H78.165c-14.092 0-25.557-11.465-25.557-25.558V152.809c0-14.093 11.465-25.559 25.557-25.559h206.186zm0-5H78.165c-16.876 0-30.557 13.682-30.557 30.559v484.285c0 16.877 13.681 30.558 30.557 30.558h206.186c16.877 0 30.557-13.681 30.557-30.558V152.809c0-16.877-13.68-30.559-30.557-30.559z"/><path fill="#BBCEC2" d="M192.12 516.811zM182.424 507.11h-.001a10.074 10.074 0 0 1 .001 0z"/><path fill="#E0EEE4" d="M71.437 162.573c3.277 0 6.609.76 9.019 2.465 2.407 1.723 4.011 4.281 4.034 8.459.001.14-.002.285-.006.432-.056.362-.095.72-.116 1.075-.233 1.353-.839 3.592-1.991 6.156a37.258 37.258 0 0 1-6.56 9.964l.019.019 1.695 1.695a39.748 39.748 0 0 0 7.06-10.691c.325-.734.609-1.436.858-2.105.44.842.991 1.61 1.638 2.257 1.136 1.131 2.607 1.923 4.255 1.927h.019c1.272 0 2.579-.512 3.708-1.522 1.142-1.014 2.141-2.504 2.993-4.55.779-1.865 1.699-2.893 2.656-3.54 1.432-.965 3.129-1.108 4.848-1.214.855-.057 1.702-.102 2.541-.325.824-.214 1.716-.692 2.258-1.579.594-.953.906-1.976.903-2.983a5.11 5.11 0 0 0-.706-2.568c2.237.654 3.868 1.397 5.055 2.172 2.924 1.936 3.403 3.947 4.122 6.29.349 1.155.725 2.387 1.553 3.534a6.7 6.7 0 0 0 1.692 1.626l.139-.139 1.62-1.62c-1.034-.577-1.534-1.248-1.963-2.091-.871-1.696-.983-4.443-3.049-7.123-2.094-2.664-5.98-4.875-13.947-6.178-1.493-.504-3.216-.78-5.115-.782-.799 0-1.626.049-2.479.152-.984.12-1.914.312-2.796.561.693-1.281 1.029-2.5 1.028-3.656.003-1.526-.579-2.843-1.342-3.942-1.151-1.653-2.713-2.96-3.907-4.274-1.212-1.324-1.97-2.524-1.963-3.884-.013-3.286 1.151-6.918 3.124-10.345h-2.749a27.516 27.516 0 0 0-1.515 3.45 8.543 8.543 0 0 0-1.496-2.142 7.866 7.866 0 0 0-1.672-1.308h-1.499c-5.331 0-10.161 2.097-13.748 5.495a18.887 18.887 0 0 1-1.718 1.82 19.992 19.992 0 0 0-3.082 5.206c3.153-1.786 5.893-4.148 7.898-7.121a9.03 9.03 0 0 1 1.121-1.372l.001.001.034-.035c1.78-1.776 4.21-2.775 6.433-2.775h.027c1.74.005 3.304.576 4.462 1.772 1.154 1.199 1.978 3.097 1.984 6.009 0 .192-.004.39-.011.596h.012c-.012.25-.029.501-.03.749-.002 1.533.577 2.857 1.341 3.963 1.152 1.662 2.715 2.972 3.91 4.283 1.213 1.321 1.969 2.514 1.963 3.854-.002.884-.312 1.972-1.281 3.398-.497.73-1.17 1.541-2.042 2.432a14.929 14.929 0 0 0-4.398 4.598c-.831-2.635-2.421-4.666-4.428-6.061-3-2.104-6.801-2.903-10.441-2.908h-.051c-2.838 0-5.5-.14-7.966-.792v2.498c2.622.607 5.308.716 8.017.717h.027zm15.343 12.681c.062-.4.102-.756.118-1.062.288-1.698 1.076-3.513 2.377-5.132a40.129 40.129 0 0 0 2.966-2.678c1.683-1.096 3.759-1.896 6.238-2.19v-.001a18.33 18.33 0 0 1 2.171-.134H100.691c2.604 0 4.733.614 6.13 1.492 1.413.897 2.026 1.948 2.025 2.964-.001.514-.15 1.074-.539 1.705a.962.962 0 0 1-.431.372c-.369.193-1.108.308-2.053.366-1.411.104-3.261.131-5.132.929-1.881.792-3.677 2.437-4.866 5.339-.752 1.81-1.587 2.983-2.362 3.667-.782.685-1.467.906-2.121.912h-.011c-.83 0-1.726-.419-2.533-1.221-.807-.799-1.476-1.957-1.81-3.208a6.699 6.699 0 0 1-.218-1.741c0-.125.004-.251.01-.379zM135.584 166.968l.38-.381.8-.801.781-.781-21.22-21.221 7.539-7.538h-6.282l-4.398 4.398-4.397-4.398h-6.281l31.899 31.9 1.179-1.178z"/><path fill="#BBCEC2" d="M163.459 136.246h-1.813l.907.906.906-.906zM290.415 234.272l-.517.516-.269.27-1.301 1.3-4.43 4.431-8.855 8.854 11.549 11.547 1.055 1.056.504.505 1.579 1.58 10.819-10.834v-11.198l-9.079-9.081-1.055 1.054zM155.613 349.042l1.398 2.424 6.131 10.619h15.06l2.437-4.223 3.635-6.293 1.458-2.527L178.204 336h-15.062l-.202.352-5.929 10.268-1.398 2.422z"/><path fill="#E0EEE4" d="M288.177 478.111c-.621.744-1.263 1.495-1.906 2.233a113.59 113.59 0 0 1-1.505 1.69h15.783v-4.441h-11.951c-.141.171-.279.346-.421.518zM292.607 511.561h4.442v-13.449h3.499v-4.441h-7.941v17.89zM67.841 197.994l-4.449 4.448v6.282l7.59-7.589-3.141-3.141z"/><path fill="#BBCEC2" d="M73.875 140.276v-.001l-.001.001h.001z"/><path fill="#E0EEE4" d="m170.201 159.645-6.223-6.222-8.026 8.025 6.223 6.223 8.026-8.026z"/><path fill="#BBCEC2" d="m65.461 502.644 2.571-3.609-4.64-3.214v5.404l2.062 1.429.007-.01z"/><path fill="#E0EEE4" d="M272.155 385.231c3.027-8.294 4.556-16.916 4.546-25.626a73.975 73.975 0 0 0-.196-5.315h-4.458c.137 1.778.213 3.553.212 5.322a69.33 69.33 0 0 1-1.799 15.752 71.29 71.29 0 0 1-3.357 10.622 71.956 71.956 0 0 1-1.963 4.441 76.565 76.565 0 0 1-5.695 9.848 80.197 80.197 0 0 1-2.237 3.119 79.202 79.202 0 0 1-2.423 3.066c-8.487 10.223-19.717 18.842-33.138 25.394l-.369.179a124.106 124.106 0 0 1-9.442 4.088c-.799.308-1.604.6-2.413.883a86.849 86.849 0 0 1-11.437 3.152 91.536 91.536 0 0 1-12.205 1.632v4.453c8.013-.503 15.798-1.978 23.249-4.413v30.722a146.633 146.633 0 0 1-11.509 1.501v-7.049c0-2.291-1.263-4.146-2.822-4.146h-8.918v24.863h8.918c1.559 0 2.822-1.856 2.822-4.146v-5.058a152.63 152.63 0 0 0 11.509-1.458v34.058a89.06 89.06 0 0 0 4.32-.54c.04-.004.081-.012.12-.018v-34.315c9.239-1.857 17.265-4.494 24.225-7.646l-.114.065 15.183 26.83a118.803 118.803 0 0 0 3.709-2.463l-14.885-26.304c5.93-3.022 11.007-6.422 15.344-10.006l18.292 20.186a117.65 117.65 0 0 0 2.938-3.235l.061-.07-6.231-6.874 12.577-15.694 6.668 4.584a115.353 115.353 0 0 0 2.148-3.807l.04-.078-20.235-13.909a65.733 65.733 0 0 0 4.194-8.362c1.316-3.18 2.186-6.035 2.735-8.386.283-1.228.482-2.304.607-3.238h19.823v-4.442h-3.63v-22.966h3.63v-4.441h-28.68c.096-.251.194-.503.286-.755zm8.744 5.196h11.578v22.966h-11.578v-22.966zm-67.429 49.825c7.045-2.716 13.66-5.967 19.759-9.688l9.632 10.627c-.301.216-.656.458-1.059.715-3.34 2.157-9.689 5.474-15.877 8.254-3.097 1.394-6.168 2.662-8.808 3.601-1.344.482-2.59.874-3.647 1.155v-14.664zm0 31.449v-12.216c1.838-.402 3.967-1.099 6.358-1.986 4.962-1.853 10.854-4.543 15.908-7.118 2.528-1.288 4.84-2.546 6.728-3.667 1.382-.824 2.507-1.54 3.396-2.215l8.08 8.919c-9.312 7.65-22.317 14.509-40.47 18.283zm43.817-21.205-8.089-8.926 8.995-8.995 8.964 6.465a67.845 67.845 0 0 1-9.87 11.456zm23.61-1.988-11.925 14.883-8.7-9.602a73.566 73.566 0 0 0 2.972-2.921 71.618 71.618 0 0 0 7.561-9.297l10.092 6.937zm-5.104-28.442c-.882 3.794-2.759 9.231-6.26 15.214l-11.809-8.518-11.512 11.512-9.185-10.135c4.723-3.15 9.103-6.597 13.09-10.309.053-.006.121-.007.192-.007.175 0 .363.012.363.012h25.563a30.984 30.984 0 0 1-.442 2.231zm.665-29.639v22.966h-21.88a88.869 88.869 0 0 0 4.677-5.388c4.388-5.481 7.998-11.377 10.784-17.578h6.419zM114.975 376.532a65.581 65.581 0 0 0 2.267 5.931 62.627 62.627 0 0 0 5.19 9.468 61.634 61.634 0 0 0 10.172 11.73c3.96 3.557 8.367 6.586 13.076 9.07l.065.033c.449.237.9.468 1.355.695.034.017.068.031.101.049.443.22.888.435 1.336.646l.168.077c.426.199.855.395 1.285.585l.283.122c.394.172.789.342 1.185.507.107.044.213.085.319.129.387.158.775.316 1.165.468l.367.139c.376.143.752.287 1.129.425.139.05.281.097.42.147.362.129.725.259 1.088.383.161.054.321.103.482.156.346.114.691.23 1.038.339.186.06.373.112.56.17.324.098.647.198.972.293.196.056.394.109.591.165.315.088.634.18.952.264.212.056.426.109.641.164.302.078.605.158.909.231.224.056.45.105.677.157.293.069.587.14.882.205.234.051.468.098.702.147.287.06.575.123.864.181.244.047.489.09.734.137.28.053.559.108.84.156.248.043.497.082.746.123.277.045.554.094.832.136.26.041.52.074.781.112.266.039.534.079.802.114.264.035.53.063.794.096.265.031.53.066.795.094.263.03.527.052.792.079.266.026.531.054.797.077.272.025.543.042.813.063.261.02.52.042.781.06.279.018.556.03.836.045.252.013.504.03.756.041.195.008.39.013.583.019v-4.447a69.297 69.297 0 0 1-11.88-1.482v-25.415l11.88.056v-4.441l-24.489-.116 8.169-14.148h-2.565l-.233-.404-1.048-1.817-8.052 13.945-14.711-28.4h-5.001l7.972 15.392-16.616 8.604c-2.826-7.254-4.355-15.306-4.562-23.996h-4.438a84.35 84.35 0 0 0 .595 8.481c.613 4.938 1.657 9.513 3.056 13.76zm34.877 13.012 10.724.051v24.33c-7.047-2.008-13.673-5.118-19.487-9.194l8.763-15.187zm-10.87-15.916 7.061 13.632-1.306 2.259h.001l-7.215 12.505a57.242 57.242 0 0 1-15.431-19.65l16.89-8.746z"/><path fill="#E0EEE4" d="M185.955 420.727c6.353-.565 12.555-1.971 18.339-4.199a100.71 100.71 0 0 0 10.875-4.927 93.521 93.521 0 0 0 1.886-1.026c9.312-5.203 16.798-11.525 22.324-18.458 2.865-3.601 5.215-7.352 7.05-11.226 3.198-6.757 4.821-13.893 4.832-21.279a51.026 51.026 0 0 0-.296-5.321h-4.471c.208 1.778.325 3.554.327 5.325-.013 7.444-1.819 14.576-5.372 21.299l-23.306-12.921a37.132 37.132 0 0 0 4.666-13.703h-4.498c-1.394 9.19-6.355 16.385-12.735 21.609-6.059 4.963-13.417 7.994-19.796 8.982v35.859l.17-.013.005-.001zm53.246-35.98a56.303 56.303 0 0 1-3.297 4.607c-5.297 6.64-12.375 12.479-20.828 17.234l-4.094-8.474 19.698-18.091 8.521 4.724zm-30.817-5.405a42.212 42.212 0 0 0 7.315-7.624l10.886 6.035-17.624 16.182-5.393-11.157a47.784 47.784 0 0 0 4.816-3.436zM65.151 461.617l.131.159a197.944 197.944 0 0 0 2.856 3.302l8.476-11.904 18.662 12.818-10.819 15.191.053.044c1.091.926 2.233 1.859 3.393 2.775l8.215-11.536 26.108 17.932-7.045 9.91a118.341 118.341 0 0 0 4.04 1.645l.035.012.052.021c6.814 2.62 14.179 4.722 21.893 6.249a150.411 150.411 0 0 0 4.754.863c.122.021.246.039.369.059l20.869-30.769c3.058.368 6.292.618 9.705.736v-4.442c-14.859-.537-25.814-3.711-34.95-7.6l-1.616-.689-15.197 20.581-.241-.132-26.201-17.995 27.256-38.277a89.839 89.839 0 0 0 4.02 2.514c14.078 8.296 30.254 12.878 46.929 13.324v-4.445c-15.505-.437-31.015-4.657-44.676-12.707a85.426 85.426 0 0 1-11.82-8.383c-8.457-7.152-15.69-16.125-20.924-26.821a84.944 84.944 0 0 1-1.451-3.126c-2.162-4.902-3.906-10.132-5.189-15.66-1.526-6.578-2.382-13.59-2.513-20.976h-4.444c.098 5.801.625 11.444 1.591 16.894l-11.675 11.597-12.405-16.843v13.347l2.491-2.475 6.727 9.135-9.218 9.161v4.501l10.136 13.771-10.136 10.069v11.152l10.675 14.494-8.916 12.524zm64.191 27.138 12.486-16.911a96.05 96.05 0 0 0 20.477 5.835l-14.622 21.559-18.55-10.089-.057-.033.266-.361zm-50.151-39.2 10.664-14.977 7.445 5.113-10.665 14.978-7.444-5.114zm18.66 12.818-7.556-5.19 10.664-14.977 7.556 5.188-10.664 14.979zm24.453-34.342-11.212 15.745-18.659-12.815 13.344-18.743a87.734 87.734 0 0 0 16.527 15.813zm-19.343-19.519L89.444 427.5l-10.069-13.671 16.719-16.616a86.977 86.977 0 0 0 6.867 11.299zm-14.422-32.127c1.324 5.674 3.13 11.13 5.424 16.333l.108.24-6.225 6.189-9.387-12.75 10.08-10.012zm-21.212 21.074 7.947-7.898 9.387 12.753-7.948 7.899-9.386-12.754zm-2.83 31.15 11.695-11.616 10.541 14.313-9.955 13.979-12.281-16.676zM176.089 636.68v-4.442h-14.707v-43.409h-4.442v17.201h-16.637v-17.201h-4.442v17.201H90.376l12.246-17.201h-5.449l-12.001 16.853-21.78-15.51v5.452L82.596 609.3 70.66 626.063l-7.268-5.176v5.452l4.692 3.341-4.11 5.772a22.057 22.057 0 0 0 1.849 5.059l21.39-30.038h26.055v31.343H66.542a22.293 22.293 0 0 0 3.5 4.441h25.122v6.376h4.439v-6.376h13.665v6.376h4.441v-15.952h18.152v15.952h4.442V636.68h16.637v15.953h4.442V636.68h14.707zm-19.149-4.442h-39.231v-21.766h39.231v21.766zM291.246 631.147h-32.713v-20.448h31.841l-16.076-16.075-3.869-3.87v15.276h-11.896v-17.201h-4.442v17.201h-33.015v-17.201h-4.442v17.201H198.53v26.208h-11.942v4.442h16.384v-26.207h13.662v42.16h4.442v-17.046h14.601v17.046h4.442v-17.046h31.521v17.046h4.44v-1.015h8.899a22.173 22.173 0 0 0 7.921-4.441h-16.82v-11.59h23.855c.397-1.662.613-3.395.613-5.18v-9.534l-9.302-9.302v19.576zm-55.569 0h-14.601v-20.674h14.601v20.674zm18.414 0h-13.972v-20.674h13.972v20.674zM291.163 156.251c-.556.259-1.113.518-1.665.781-.146.069-.29.14-.436.21a203.483 203.483 0 0 0-28.431 16.533v.001l.702.702.348.349 1.247 1.246 4.819 4.819-30.696 30.759.891.891.787.786.784.784.524.525 1.044 1.045 6.764-6.777 11.669 11.669-6.766 6.774.001.001 3.141 3.14 13.275-13.294 11.739 11.739 3.141-3.141-11.741-11.74 14.293-14.311 11.75 11.75 2.202-2.202v-1.877l-25.657-25.657 8.716-8.694 16.941 16.943v-6.283l-13.797-13.796 7.332-7.314 6.465 6.465v-6.28l-4.076-4.076a194.33 194.33 0 0 1 4.076-1.748v-.719c0-1.335-.137-2.638-.387-3.9-2.31.938-4.608 1.904-6.881 2.928-.708.319-1.414.643-2.118.969zm-7.708 40.349-20.803 20.831-11.669-11.67 20.796-20.838 11.676 11.677zM208.96 156.471l-20.225-20.225h-6.282l2.085 2.084-10.404 10.404 1.038 1.038 2.102 2.103 10.406-10.404 18.14 18.141-10.405 10.404 3.142 3.141 10.403-10.404 11.317 11.316c-.982.951-1.954 1.905-2.908 2.871a174.003 174.003 0 0 0-7.231 7.798l.037.037 1.575 1.575.787.788.752.75a169.04 169.04 0 0 1 7.241-7.827c17.051-17.258 39.009-32.469 63.292-43.523a19.959 19.959 0 0 0-3.283-.292h-6.409a226.937 226.937 0 0 0-3.146 1.61l-1.61-1.61h-6.28l3.794 3.794c-11.651 6.376-22.684 13.72-32.741 21.802l1.263-1.262-12.138-12.139 12.196-12.195h-6.281l-7.462 7.461-7.462-7.461h-6.281l10.601 10.602-9.623 9.623zm23.117 7.056a201.746 201.746 0 0 0-8.576 7.485l-11.401-11.4 8.031-8.031 11.946 11.946zM73.743 228.808l1.892-1.892-12.243-12.243v6.281l9.103 9.103 1.248-1.249zM292.608 522.06v11.656H274.87V522.06h-4.44v26.869h-11.897V522.06h-4.442v26.869h-12.166v-12.004h-24.613v12.003h-11.779V522.06h-3.609l-.055.197a19.807 19.807 0 0 1-.778 2.244v24.427h-14.503v4.441h30.724v10.873h-30.724v4.443h14.503v9.645h4.442v-9.645h11.102v9.645h4.441v-9.645h33.015v9.645h4.442v-24.961h11.897v23.035l4.44-4.441v-33.804h17.738v16.067l4.442-4.442V522.06h-4.442zm-38.517 42.182h-12.167v-10.873h12.167v10.873zM77.361 265.234c6.216 3.163 11.916 7.045 16.891 11.585 3.42 3.12 6.496 6.55 9.159 10.276.481.675.945 1.363 1.4 2.056a59.775 59.775 0 0 1 2.714 4.556 57.271 57.271 0 0 1 6.812 27.209c0 2.683-.185 5.403-.552 8.147a63.545 63.545 0 0 1-.555 3.473 126.61 126.61 0 0 0-.555 3.2 111.82 111.82 0 0 0-1 8.057h4.464c.309-3.407.786-6.89 1.455-10.432a67.253 67.253 0 0 0 1.184-12.445 61.877 61.877 0 0 0-.888-10.454l13.256-7.526v40.857h4.441v-10.015h18.58l.232-.403 1.282-2.221.569-.985v-.832h-20.663v-13.263h12.818v-22.936l7.845-4.454v-2.282l-1.802-1.802-13.159 7.47-14.637-14.635 10.314-10.314-3.142-3.141-10.314 10.314-10.257-10.257 10.314-10.315-3.14-3.14-10.314 10.314-9.744-9.744 10.315-10.314-3.141-3.141L84.6 260.642 70.678 246.72l-3.14 3.14 11.011 11.013c-4.789-2.373-9.871-4.33-15.157-5.891v4.62a89.394 89.394 0 0 1 12.127 4.732c.617.296 1.234.591 1.842.9zm66.6 30.427v15.971h-8.374v-11.218l8.374-4.753zm-6.68-1.316-20.342 11.55a61.701 61.701 0 0 0-5.501-14.289c-2.875-5.367-6.54-10.348-10.894-14.86l9.569-9.569 27.168 27.168zM97.23 254.293l9.742 9.744-9.607 9.609c-.143-.131-.286-.262-.431-.391l.14-.14-9.333-9.333 9.489-9.489zM181.04 170.485l-1.265-1.266-1.876-1.874-19.005 19.005-13.923-13.922-2.071 2.071-1.071 1.069 13.924 13.923-18.531 18.528-13.92-13.922-3.142 3.14 13.922 13.923-19.115 19.115 14.317 14.316 1.708 1.709 19.117-19.115 10.258 10.257-19.117 19.115 3.141 3.141 18.849-18.847c.02-.039.038-.079.057-.119a77.903 77.903 0 0 1 2.241-4.11c2.271-3.875 5.082-7.952 8.85-12.834l.031-.039.018-.022.062-.079c.154-.19.609-.757 1.372-1.71l-12.364 12.364-10.258-10.258 18.529-18.528 9.57 9.569.105-.132.307-.384a9185.625 9185.625 0 0 1 2.373-2.98l-22.099-22.098 19.006-19.006zm-41.7 61.185-9.745-9.743 14.223-14.221 9.746 9.743-14.224 14.221zm29.298-29.295-11.933 11.934-9.745-9.744 11.933-11.934 9.745 9.744z"/><path fill="#E0EEE4" d="M72.554 344.563a76.878 76.878 0 0 1 4.378-.467l.063-.005v-7.694h9.894a132.72 132.72 0 0 0-.722 7.397h4.447a133.23 133.23 0 0 1 1.987-15.152c.271-1.433.462-2.834.583-4.205a39.88 39.88 0 0 0 .159-3.52c-.007-5.109-.994-9.805-2.842-14.186a38.353 38.353 0 0 0-1.484-3.115c-2.595-4.848-6.34-9.305-11.121-13.183l-.195-.16-.105-.083a55.4 55.4 0 0 0-7.383-4.972l-.018-.01a58.116 58.116 0 0 0-1.156-.637l-.011-.005c-.392-.21-.788-.417-1.188-.62l-.082-.041c-.378-.191-.757-.38-1.142-.564l-.082-.039a62.516 62.516 0 0 0-1.165-.546l-.107-.047a64.823 64.823 0 0 0-1.163-.515l-.148-.062c-.185-.079-.372-.155-.558-.233v4.868c3.885 1.755 7.469 3.841 10.616 6.255 4.831 3.692 8.56 7.959 11.092 12.69 2.549 4.78 3.793 9.758 3.801 15.211a37.23 37.23 0 0 1-.666 6.896 144.307 144.307 0 0 0-.711 4.136h-10.53v-25.169H63.393v4.442h9.161v20.727h-9.161v4.442h9.161v8.166zM270.477 283.61l11.836-11.851v-.001l-1.17-1.17-1.97-1.97-11.538 11.554-13.837-13.543 11.685-11.701-2.084-2.084-1.058-1.057-11.718 11.735-14.018-13.72 11.868-11.884-1.251-1.25-1.89-1.891-11.902 11.918-11.779-11.529-.005-.006 12.021-12.047-1.57-1.571-.627-.626-.944-.944-.889-.89-12.023 12.047-2.406-2.406-1.68-1.68-.79-.79a74.326 74.326 0 0 0-2.436 5.923c-1.165 3.248-2.012 6.418-2.548 9.492l-.043.244a45.427 45.427 0 0 0-.551 4.62v.002a42.606 42.606 0 0 0-.099 2.84c.001.132.004.262.006.393v.001h.001c.051 4.495.815 8.723 2.4 12.811a36.789 36.789 0 0 0 1.821 3.972 38.403 38.403 0 0 0 1.815 3.04c2.886 4.372 6.954 8.654 12.58 12.762 11.129 8.113 20.232 16.804 27.355 25.894a105.767 105.767 0 0 1 4.24 5.795c.066.099.135.197.202.296l.055.081.047.069c.826 1.23 1.607 2.467 2.365 3.708.227.371.461.74.682 1.112 4.735 7.988 8.015 16.228 9.857 24.485h4.531c-1.927-9.12-5.484-18.172-10.567-26.749a102.584 102.584 0 0 0-3.125-4.946h39.224v-4.442h-14.868l-15.205-24.046zm-55.273-19.157c-2.477-4.655-3.69-9.595-3.701-15.089a38.096 38.096 0 0 1 .247-4.284l6.762-6.771 11.78 11.529-14.912 14.932c-.058-.106-.12-.21-.176-.317zm34.783 33.39c-6.22-6.708-13.464-13.085-21.684-19.079-4.374-3.192-7.831-6.544-10.476-10.158l15.64-15.661 31.029 30.369-14.509 14.529z"/><path fill="#E0EEE4" d="M240.863 327.269c-6.082-9.359-15.093-18.873-27.545-27.948-.328-.239-.649-.482-.97-.724-6.064-4.547-11.121-9.603-15.119-15.077a59.684 59.684 0 0 1-4.456-7.07 54.896 54.896 0 0 1-2.088-4.346c-3.14-7.294-4.632-15.017-4.621-22.73.008-10.484 2.654-20.898 7.181-30.961a101.936 101.936 0 0 1 2.474-5.125 113.744 113.744 0 0 1 3.928-6.937 7150.304 7150.304 0 0 1-5.56 6.997l-2.616 3.287-3.12 3.916-1.602 2.008c-3.391 9.107-5.12 18.087-5.126 26.812a62.291 62.291 0 0 0 2.725 18.312h-18.795l-.004.056a143.558 143.558 0 0 0-.233 4.385h20.581a59.649 59.649 0 0 0 2.961 6.425c.5.935 1.031 1.858 1.582 2.772h-25.301v.004c-.004.725-.006 1.462-.005 2.217l-.001.61v1.611h8.363l7.213 9.583h-15.576v4.441h17.583v10.885h-17.583v4.442h17.583v12.004h.149l.47.007.234.404.339.587 1.873 3.245 11.71-13.72 19.684 26.152h5.559l-8.247-10.956 15.412-12.659c3.446 3.935 6.404 7.968 8.838 12.086 2.26 3.825 4.039 7.674 5.355 11.529h4.673c-1.414-4.52-3.448-9.124-6.204-13.791a76.463 76.463 0 0 0-1.698-2.733zm-54.414-31.685v-.238h-.181l-7.212-9.583h13.849v-.643c3.742 5.335 8.392 10.277 13.894 14.774l-9.089 10.651-11.261-14.961zm25.365 33.701-11.369-15.105 9.867-11.562c.132.098.259.197.392.293 6.141 4.478 11.548 9.151 16.191 13.986l-15.081 12.388zM72.426 568.685h28.988v9.647h4.441v-9.647h30.006v9.647h4.442v-9.647h16.637v9.647h4.442v-24.961h14.707v-4.442l-35.786-.001v-30.174c-.05-.009-.101-.017-.151-.027l-.49-.096-.052-.009c-.947-.185-1.923-.385-2.989-.615l-.177-.038a77.038 77.038 0 0 1-.756-.164c-.309-.069-.614-.143-.922-.213l-13.32 18.454-17.263-11.961 9.327-13.1a134.201 134.201 0 0 1-4.038-1.707l-.15-.069-8.79 12.346-23.873-16.542-.006.009-2.571 3.61 8.926 6.184-9.222 12.95-8.925-6.184-.006.008-1.463 2.055v2.324l22.767 15.773-22.767 31.973v4.617h2.165l6.869-9.647zm67.877-15.314h16.639v10.873h-16.639v-10.873zm-4.442 10.873h-30.005v-10.873h30.005v10.873zm-3.621-15.316h-23.461l7.751-10.884 15.71 10.884zm-30.634-21.225 11.274 7.811-9.221 12.951-11.273-7.812 9.22-12.95zm-24.169 2.593 9.222-12.95 11.297 7.827-9.221 12.951-11.298-7.828zm12.373 13.976 11.604 8.04v11.932H75.588l14.222-19.972z"/><path fill="#BBCEC2" d="M77.802 305.978v25.168h9.035c.21-1.294.404-2.413.606-3.478.432-2.292.651-4.562.651-6.746-.007-5.317-1.219-10.168-3.705-14.83-2.476-4.628-6.135-8.809-10.871-12.43-2.959-2.269-6.333-4.282-10.048-5.993v18.309h14.332zM183.325 507.159c-.3-.028-.602-.048-.902-.049a10.18 10.18 0 0 0-.765.035c-.08.006-.159.01-.235.019a9.673 9.673 0 0 0-3.052.84 9.776 9.776 0 0 0-2.98 2.148 9.722 9.722 0 0 0-1.728 2.5c-.13.276-.245.555-.349.838a9.64 9.64 0 0 0-.592 3.32c.001.122.005.245.011.367.002.052.001.106.004.159.005.094.015.186.022.281.007.08.011.16.021.239l.007.059a9.637 9.637 0 0 0 1.142 3.566 9.766 9.766 0 0 0 7.791 5.002c.048.004.098.002.146.005.185.012.37.022.557.022a9.708 9.708 0 0 0 5.2-1.531 9.705 9.705 0 0 0 4.138-5.556 9.688 9.688 0 0 0 .359-2.613 9.614 9.614 0 0 0-.915-4.098 9.658 9.658 0 0 0-7.88-5.553zM126.155 431.672l-26.327 36.976 25.105 17.243 14.75-19.977.38-.514.586.251 1.615.689c10.989 4.677 22.015 7.079 34.634 7.537v-26.659c-16.813-.444-33.164-5.084-47.339-13.438a92.96 92.96 0 0 1-3.404-2.108zM66.461 641.009h46V611.28l-24.832.001-21.168 29.728zM129.657 548.121l-12.931-8.959-6.38 8.959h19.311zM228.304 202.903l.6.6.073.073.143.143.675.675.16.161 1.417 1.416 3.286 3.286 1 1 .823.823 30.125-30.187-4.249-4.249-1.246-1.246-.349-.348-.801-.802c-10.991 7.721-20.805 16.282-28.856 25.179a135.122 135.122 0 0 0-2.93 3.347l.045.044.084.085zM81.64 180.831c1.333-2.969 1.803-5.234 1.925-5.922.023-.349.06-.702.114-1.052.002-.121.005-.241.004-.357-.02-3.533-1.195-6.014-3.697-7.806-2.108-1.491-5.146-2.314-8.549-2.314h-.027c-2.592-.001-5.329-.102-8.017-.7v16.02l11.853 11.853a36.638 36.638 0 0 0 6.394-9.722zM298.455 359.737a17.274 17.274 0 0 1-2.899-5.446h-18.24c.129 1.796.194 3.58.192 5.316.01 8.688-1.496 17.29-4.476 25.572h27.517v-23.234a17.557 17.557 0 0 1-2.094-2.208zM120.635 178.411c-.912-1.263-1.315-2.594-1.67-3.77l-.112-.37c-.647-2.128-1.156-3.807-3.682-5.48-.87-.567-1.956-1.088-3.238-1.551.095.416.142.842.142 1.273.002 1.149-.351 2.329-1.024 3.41-.573.936-1.548 1.625-2.743 1.934-.857.228-1.707.285-2.528.339l-.161.01c-1.781.109-3.235.258-4.449 1.078-.982.662-1.733 1.673-2.364 3.181-.888 2.134-1.935 3.72-3.2 4.843-1.244 1.113-2.753 1.726-4.246 1.726h-.02c-1.714-.005-3.427-.772-4.823-2.162a9.475 9.475 0 0 1-.906-1.051 29.13 29.13 0 0 1-.283.652c-1.763 3.954-4.253 7.719-7.225 10.938l5.987 5.987a20.168 20.168 0 0 1 3.929-1.728 20.16 20.16 0 0 1 6.15-.968h.001c3.263.001 6.49.797 9.37 2.309l12.575-12.575 6.288-6.287a7.454 7.454 0 0 1-1.768-1.738zM102.985 212.873a9.717 9.717 0 0 0-2.742-3.526 9.835 9.835 0 0 0-1.083-.76 9.705 9.705 0 0 0-4.156-1.345 9.658 9.658 0 0 0-.833-.042c-.158.001-.314.013-.471.021-.126.006-.253.006-.379.017a9.694 9.694 0 0 0-6.008 2.804l-.04.043a9.746 9.746 0 0 0-2.471 4.306c-.124.46-.204.929-.258 1.402a9.704 9.704 0 0 0-.074 1.106c.001.581.059 1.16.164 1.732.05.274.107.546.181.815.075.273.163.539.26.801a9.66 9.66 0 0 0 3.052 4.227 9.772 9.772 0 0 0 2.016 1.242 9.644 9.644 0 0 0 4.029.882c.255 0 .51-.014.763-.034.028-.003.056-.001.084-.003a9.692 9.692 0 0 0 8.261-6.348c.065-.177.116-.357.17-.537a9.744 9.744 0 0 0 .416-2.778c0-.115-.005-.23-.009-.344-.002-.059-.001-.119-.005-.178-.004-.081-.013-.162-.02-.243a9.606 9.606 0 0 0-.847-3.26zM87.909 137.885c.233-.55.493-1.096.765-1.64h-2.351c.291.233.572.478.833.748.267.277.519.575.753.892z"/><path fill="#BBCEC2" d="M91.769 149.93c.384.421.805.842 1.251 1.287.94.936 1.912 1.904 2.723 3.07.989 1.424 1.489 2.906 1.487 4.405 0 .81-.147 1.646-.441 2.496a21.29 21.29 0 0 1 3.88-.362c1.924.002 3.71.272 5.309.804 7.292 1.2 11.866 3.255 14.388 6.465 1.439 1.866 1.991 3.752 2.435 5.269.23.782.426 1.457.698 1.984.409.805.847 1.368 1.837 1.867l4.338-4.338 4.162-4.16-32.471-32.472h-8.09c-2.082 3.491-3.271 7.157-3.258 10.342-.005.999.519 1.996 1.752 3.343zM176.898 384.423v-13.456h-15.386l-7.708 13.346 23.094.11zM300.549 606.028v-44.896l-22.448 22.448 22.448 22.448zM180.814 249.369c.006-8.073 1.476-16.414 4.371-24.856a2521.513 2521.513 0 0 1-3.74 4.672l-.018.022-.029.036c-.179.232-.346.455-.52.684-7.23 9.467-10.906 16.066-13.005 23.33-.072.251-.143.504-.213.758-.019.069-.035.139-.055.208l-.146.561c-.024.09-.046.181-.069.272-.041.169-.084.338-.124.51-.025.1-.048.203-.071.304-.038.164-.077.327-.112.491l-.072.326c-.034.161-.069.323-.102.485l-.069.342-.096.486-.065.35c-.031.165-.061.33-.09.497l-.063.357-.083.506-.06.367c-.026.171-.053.341-.078.514l-.056.375-.074.534-.051.369-.071.562c-.016.122-.03.244-.045.367l-.068.587c-.013.12-.028.241-.04.363-.024.205-.044.412-.065.619l-.035.352c-.023.22-.044.444-.063.669l-.03.323c-.021.247-.042.495-.061.746l-.023.27-.011.147h17.653a63.023 63.023 0 0 1-2.451-17.505zM71.409 159.343c2.994.003 7.314.536 10.904 3.054a12.228 12.228 0 0 1 4.167 4.996 15.976 15.976 0 0 1 3.675-3.493c.785-.808 1.422-1.569 1.896-2.265.767-1.128 1.139-2.091 1.14-2.945.005-.978-.519-1.966-1.75-3.307-.377-.413-.792-.827-1.23-1.264-.948-.945-1.929-1.922-2.748-3.105-.988-1.429-1.488-2.918-1.485-4.425.001-.204.012-.403.022-.596l.008-.187c-.006-.186-.002-.376-.002-.56-.004-2.407-.596-4.241-1.758-5.448-.961-.994-2.303-1.521-3.88-1.525h-.027c-2.077 0-4.268.949-5.861 2.539l-.035.035a8.087 8.087 0 0 0-1.021 1.246c-2.143 3.179-5.238 5.833-8.985 7.809a19.958 19.958 0 0 0-1.047 6.353v2.266c2.562.713 5.336.822 7.966.822h.051zM222.271 211.718l-.602-.602c-.313.44-.628.879-.932 1.319-3.026 4.376-5.583 8.749-7.631 13.046l.991.991 1.68 1.68 1.835 1.835 11.451-11.476-4.537-4.538-.37-.37-.283-.283-.19-.19-.502-.502-.91-.91zM265.146 316.633c5.153 8.695 8.753 17.83 10.703 27.16h19.708a17.347 17.347 0 0 1 4.993-7.667v-23.221h-37.721a105.539 105.539 0 0 1 2.317 3.728zM129.342 488.755l-.267.361.058.034.209-.395zM88.07 139.696a27.58 27.58 0 0 1 1.515-3.45h-.911c-.272.544-.532 1.09-.765 1.64a8.921 8.921 0 0 0-.754-.892 8.67 8.67 0 0 0-.833-.748h-1.42c.6.356 1.166.784 1.672 1.309a8.52 8.52 0 0 1 1.496 2.141zM222.272 211.718l.91.91.502.502-.521-.522-.795-.795-.698-.698v.001l.602.602z"/><path fill="#BBCEC2" d="m181.427 229.208-.025.029-.524.691c.174-.229.341-.452.521-.685l.028-.035zM187.624 524.979zM179.866 507.457a9.821 9.821 0 0 1 0 0zM173.058 514.295a9.646 9.646 0 0 0-.335 2.515v.001a9.619 9.619 0 0 1 .335-2.516zM69.655 141.741a20.248 20.248 0 0 0-1.719 1.82 18.905 18.905 0 0 0 1.719-1.82zM192.12 516.812v-.001a9.636 9.636 0 0 1 0 .001zM85.056 213.585zM103.867 216.9v-.002a9.752 9.752 0 0 1 0 .002zM103.832 216.133zM84.469 216.897v.002a9.689 9.689 0 0 1 0-.002zM103.54 199.01l12.576-12.575-12.576 12.575zM97.483 226.012a9.696 9.696 0 0 0 5.797-5.798c.065-.178.116-.358.17-.537-.054.179-.105.359-.17.536a9.695 9.695 0 0 1-5.797 5.799zM90.142 225.716a9.639 9.639 0 0 0 4.027.882 10.206 10.206 0 0 0 .002 0 9.644 9.644 0 0 1-4.029-.882zM228.305 202.903l.673.673-.073-.073-.6-.6zM88.019 197.669a20.222 20.222 0 0 1 6.151-.967h-.001a20.19 20.19 0 0 0-6.15.967zM94.171 207.2zM228.777 278.111c7.969 5.81 15.107 12.054 21.229 18.569l13.341-13.359-29.875-29.239-14.582 14.6c2.547 3.347 5.786 6.437 9.887 9.429zM141.425 291.065l12.432-7.057-16.319-16.316-9.744 9.744 13.631 13.629zM77.802 337.204v6.827l.046-.003a92.227 92.227 0 0 1 1.848-.107 123.43 123.43 0 0 1 1.562-.063l.314-.01c.54-.017 1.087-.029 1.646-.038.08-.002.162-.002.242-.003.594-.009 1.195-.014 1.812-.014h.081c.152-2.185.361-4.395.623-6.589h-8.174zM299.893 461.596c-.474.793-.957 1.581-1.448 2.365-.08.127-.163.253-.244.381-.414.654-.831 1.307-1.257 1.954-.18.272-.363.539-.543.81-.334.499-.67.999-1.011 1.494-.212.308-.429.613-.643.919a143.8 143.8 0 0 1-.96 1.355c-.231.321-.466.638-.699.956-.317.432-.635.862-.959 1.289a86.9 86.9 0 0 1-.732.962 168.207 168.207 0 0 1-1.73 2.202c-.133.167-.265.337-.4.503h11.282v-16.312c-.081.138-.161.277-.243.415-.139.235-.273.473-.413.707zM63.392 193.545v7.755l3.878-3.877-3.878-3.878zM218.518 239.445l-5.996 6.004a37.391 37.391 0 0 0-.212 3.915c.011 5.103 1.082 9.711 3.27 14.061l13.564-13.581-10.626-10.399z"/><path fill="#BBCEC2" d="M162.192 578.331h13.898v-24.153h-13.898v24.153zm0 0h13.898v-24.153h-13.898v24.153zM33.519 86.967h500v600h-500v-600zm0 600h500v-600h-500v600z"/><path fill="#BBCEC2" d="M141.11 563.436h15.024v-9.258H141.11v9.258zM71.925 230.628l-8.532-8.532v16.198l.433.433 8.099-8.099zM76.281 226.272a20.214 20.214 0 0 1-2.309-9.372v-.001c0-.108.009-.215.011-.323.028-1.745.279-3.468.746-5.13a20.07 20.07 0 0 1 1.939-4.625l-5.115-5.115-8.16 8.16v3.666l12.814 12.814.074-.074zM267.626 279.035l10.975-10.988-5.217-5.216-7.332-7.332-11.109 11.123 12.683 12.413zM106.972 237.127l-1.472-1.472-1.255-1.254a20.159 20.159 0 0 1-10.076 2.695 20.27 20.27 0 0 1-4.241-.447c-.16-.034-.318-.073-.477-.111-.07-.017-.142-.031-.212-.049-.067-.016-.131-.036-.199-.053a20.04 20.04 0 0 1-5.633-2.445l-12.158 12.158L84.6 259.501l22.372-22.374zM71.745 312.035h-8.277v7.873h-.076v11.239h8.353v-19.112z"/><path fill="#BBCEC2" d="M297.858 511.561h2.691v-12.642h-2.691v12.642zm0 0h2.691v-12.642h-2.691v12.642zM33.519 86.967h500v600h-500v-600zm0 600h500v-600h-500v600z"/><path fill="#BBCEC2" d="M77.155 563.435h23.452v-10.7l-10.601-7.347-12.851 18.047zM165.133 327.117h16.774v-11.196h-16.774v11.196zM66.967 250.432l-1.208 1.207-2.367 2.367v.116a96.92 96.92 0 0 1 11.365 4.1l-7.79-7.79zM114.396 264.037l9.115 9.116 9.743-9.743-4.558-4.559-4.557-4.558-9.743 9.744zM222.792 235.153l10.631 10.405 11.337-11.353-9.701-9.701-.821-.82-11.446 11.469zM250.616 262.385l11.153-11.169-12.726-12.727-11.291 11.306 12.864 12.59zM86.855 518.463l-8.285 11.635 9.971 6.908 8.284-11.635-9.97-6.908zM284.034 482.842l-.394.427-.28.302c-.176.191-.35.375-.521.559l-.269.285c-.193.204-.382.402-.57.598-.061.063-.123.13-.183.191-.249.261-.496.515-.741.764a129.21 129.21 0 0 1-1.526 1.527c-.137.134-.276.266-.412.401-.378.368-.756.735-1.138 1.099-.188.179-.38.357-.569.534-.336.317-.672.633-1.011.945-.207.192-.417.38-.624.568-.473.415-2.59 2.301-3.086 2.726-.804.687-1.64 1.381-2.481 2.063-7.769 6.301-16.125 11.582-24.888 15.731H291.8v-18.698h8.749v-10.022h-16.515zM106.664 578.33h28.391v-8.84h-28.391v8.84zM141.11 578.33h15.024v-8.84H141.11v8.84zM118.778 310.887c.54 3.342.812 6.714.808 10.03 0 4.145-.404 8.383-1.198 12.595a108.527 108.527 0 0 0-1.445 10.282h13.396v-39.471l-11.561 6.564zM136.396 343.794h11.988l5.316-9.207h-17.304v9.207zM103.465 547.347l8.284-11.635-9.946-6.891-8.283 11.634 9.945 6.892zM149.213 316.075v.808h-12.817v11.647h19.855v-38.916l-7.038 3.995v22.466z"/><path fill="#BBCEC2" d="M106.663 563.436h28.391v-9.258h-28.391v9.258zm0 0h28.391v-9.258h-28.391v9.258zM33.519 86.967h500v600h-500v-600zm0 600h500v-600h-500v600z"/><path fill="#BBCEC2" d="m229.804 321.3-14.206 11.669 8.148 10.824h19.499c-1.293-3.722-3.039-7.457-5.202-11.119-2.263-3.827-5.033-7.65-8.239-11.374zM228.044 136.245h-12.639l6.32 6.319 6.319-6.319zM297.857 548.977l2.691-2.691v-24.227h-2.691v26.918z"/><path fill="#BBCEC2" d="M297.727 412.586h2.822v-21.351h-2.822v21.351zm0 0h2.822v-21.351h-2.822v21.351zM33.519 86.967h500v600h-500v-600zm0 600h500v-600h-500v600z"/><path fill="#BBCEC2" d="M256.419 412.586h19.232v-21.352h-5.093c-2.785 6.094-6.374 11.905-10.673 17.278a88.807 88.807 0 0 1-3.466 4.074zM250.647 418.643l-.023-.001c-.006 0-.086-.005-.186-.008a103.938 103.938 0 0 1-12.187 9.655l7.988 8.816 10.913-10.913.486-.486.557.402 11.086 7.994c3.557-6.284 5.11-11.57 5.725-14.218.098-.42.188-.834.266-1.241h-24.625z"/><path fill="#BBCEC2" d="m258.277 433.633-7.965 7.965 7.02 7.747a67.168 67.168 0 0 0 8.71-10.11l-7.765-5.602zM275.678 538.967v32.19l16.123-16.122v-16.068h-16.123zM242.877 447.409c-1.879 1.114-4.221 2.391-6.776 3.692-5.515 2.811-11.344 5.419-15.991 7.156-2.383.882-4.259 1.485-5.835 1.87v10.579c15.296-3.31 28.238-9.151 38.494-17.377l-7.021-7.748c-.73.515-1.632 1.088-2.871 1.828zM261.402 453.836l7.531 8.312 10.79-13.466-8.712-5.99a72.806 72.806 0 0 1-7.187 8.737 76.485 76.485 0 0 1-2.422 2.407zM273.446 214.053l11.169 11.17 8.64-8.638 4.522-4.521-11.18-11.179-13.151 13.168z"/><path fill="#BBCEC2" d="M186.588 563.436h29.917v-9.258h-29.917v9.258zm0 0h29.917v-9.258h-29.917v9.258zM33.519 86.967h500v600h-500v-600zm0 600h500v-600h-500v600z"/><path fill="#BBCEC2" d="m200.284 526.225-.049.086c-.141.265-.289.526-.443.784l-.085.143c-.167.276-.341.547-.521.812-.037.057-.075.112-.113.168-.188.272-.38.54-.579.802l-.001.001c-.199.262-.407.517-.619.767l-.13.155c-.209.243-.422.48-.642.714-.038.041-.077.079-.116.12-.207.215-.419.427-.635.633l-.093.09c-.234.22-.475.434-.719.643l-.158.135c-.248.208-.501.412-.759.608l-.065.048c-.247.186-.498.364-.752.538l-.154.107c-.265.178-.535.349-.808.516-.054.032-.109.065-.164.096-.264.157-.533.309-.806.456l-.071.038c-.288.152-.581.296-.877.434l-.19.087a19.546 19.546 0 0 1-1.871.739c-.055.017-.107.038-.161.055a20.107 20.107 0 0 1-1.133.334 21.27 21.27 0 0 1-.982.236v11.551h13.696v-21.896z"/><path fill="#BBCEC2" d="M186.588 578.331h13.696v-8.839h-13.696v8.839zm0 0h13.696v-8.839h-13.696v8.839zM33.519 86.967h500v600h-500v-600zm0 600h500v-600h-500v600z"/><path fill="#BBCEC2" d="m283.606 174.204-7.571 7.553 24.513 24.514v-15.124l-.298-.299-16.644-16.644z"/><path fill="#BBCEC2" d="M259.34 548.122h10.282V522.06H259.34v26.062zm0 0h10.282V522.06H259.34v26.062zM33.519 86.967h500v600h-500v-600zm0 600h500v-600h-500v600z"/><path fill="#BBCEC2" d="M241.364 441.229c.094-.061.187-.121.276-.181l-8.561-9.448c-5.846 3.521-12.165 6.615-18.803 9.205v13.044c.806-.24 1.676-.527 2.568-.848 2.499-.888 5.524-2.126 8.749-3.577 6.047-2.716 12.385-6.01 15.771-8.195z"/><path fill="#BBCEC2" d="M275.678 532.909H291.8V522.06h-16.122v10.849zm0 0H291.8V522.06h-16.122v10.849zM33.519 86.967h500v600h-500v-600zm0 600h500v-600h-500v600z"/><path fill="#BBCEC2" d="M216.505 548.121v-12.003H242.732v12.003h10.552v-26.062H206.34v26.062h10.165zM295.023 269.623l2.637 2.636c.018.021.039.042.059.062.475.476.945.964 1.41 1.461.165.175.324.356.486.533.313.341.625.684.933 1.034V254.64l-10.247 10.261 4.722 4.722zM300.549 241.157v-17.02l-8.51 8.51 8.51 8.51zM300.55 161.654v-3.796c-.891.372-1.782.743-2.669 1.128l2.669 2.668zM177.327 166.773l-3.278-3.279-3.279-3.278-8.026 8.025-.57.571-.57-.571-6.224-6.222-6.882 6.881-1.061 1.061-1.896 1.895 13.352 13.352 18.434-18.435zM130.737 221.927l8.603 8.602 13.081-13.08-8.603-8.602-13.081 13.08zM241.115 379.805c3.239-6.392 4.888-13.182 4.899-20.191a45.847 45.847 0 0 0-.327-5.324h-22.061a37.923 37.923 0 0 1-4.38 13.391l21.869 12.124zM105.831 264.037l-8.601-8.602-8.347 8.348 8.602 8.601 8.346-8.347zM256.462 231.061l7.86 7.86 3.299 3.298 2.353-2.353 2.354-2.354 8.006-8.006-11.167-11.168-12.705 12.723zM163.175 189.49l21.464 21.462 1.106-1.388c.118-.151.237-.299.358-.45l1.675-2.104c.089-.115.179-.227.27-.341l1.734-2.182c.104-.131.205-.259.31-.389l1.855-2.336.194-.244 1.794-2.26.374-.471 1.88-2.37.278-.35c.672-.85 1.355-1.709 2.041-2.577.06-.075.119-.147.178-.223l2.271-2.865-19.347-19.347-18.435 18.435zM272.358 136.246h-1.84l.62.62c.406-.21.814-.412 1.22-.62zM217.507 354.29h-24.548l-5.571 9.647-1.608 2.787v17.346c6.66-1.058 13.803-4.305 19.286-8.794 6.888-5.643 11.177-12.883 12.441-20.986zM214.276 476.902v33.522c.273-.043.544-.088.818-.135.394-.068.789-.135 1.184-.207.43-.08.86-.165 1.29-.251.394-.078.787-.157 1.181-.24.431-.092.861-.19 1.292-.289.393-.089.786-.177 1.177-.271.435-.105.869-.218 1.302-.329.388-.099.777-.196 1.166-.301.438-.118.876-.245 1.314-.369.383-.109.766-.216 1.15-.329.446-.133.89-.275 1.335-.414.374-.117.749-.231 1.122-.353.461-.149.919-.308 1.378-.467.358-.121.715-.239 1.07-.365.493-.176.985-.361 1.477-.544.321-.118.644-.232.965-.356a98.32 98.32 0 0 0 1.909-.759c.224-.091.45-.18.675-.272.749-.311 1.498-.629 2.243-.959.298-.13.595-.271.892-.405.501-.229 1.006-.453 1.506-.689.337-.158.671-.326 1.007-.489.458-.22.918-.44 1.374-.669.351-.176.699-.36 1.049-.539.438-.226.874-.45 1.311-.682.357-.19.714-.388 1.07-.582.423-.232.847-.461 1.269-.699.36-.204.719-.414 1.078-.623.413-.238.825-.476 1.234-.719.363-.217.723-.439 1.084-.659.292-.18.586-.361.877-.543l-14.842-26.229c-6.982 3.086-14.696 5.511-22.957 7.215zM242.704 467.057l14.431 25.501c.269-.188.535-.377.801-.568.36-.256.719-.511 1.074-.772.392-.286.78-.578 1.167-.869.344-.258.688-.515 1.029-.776.396-.304.788-.614 1.179-.924.329-.257.659-.514.985-.777.399-.322.792-.65 1.187-.977.313-.259.627-.515.938-.776.404-.343.805-.692 1.205-1.041.294-.254.589-.505.881-.764.419-.371.831-.75 1.245-1.127.268-.242.536-.481.8-.727.453-.42.9-.848 1.346-1.277.218-.208.439-.414.656-.624a119.59 119.59 0 0 0 2.354-2.356c.086-.088.175-.179.263-.273l.113-.116.113-.118.193-.204-17.816-19.664c-4.267 3.457-9.018 6.556-14.144 9.229zM198.328 479.252v4.32c0 2.778-1.595 4.954-3.63 4.954h-8.918v8.371c.724.122 1.438.284 2.135.481 6.748 1.917 12.148 7.301 14.002 14.161a85.21 85.21 0 0 0 1.667-.048c.178-.007.354-.016.533-.024.381-.017.761-.033 1.144-.055a129.996 129.996 0 0 0 1.676-.114c.234-.018.467-.037.702-.058.193-.015.387-.033.581-.05v-33.183c-3.198.511-6.517.929-9.892 1.245zM252.125 205.762l10.528 10.527 19.66-19.687-10.533-10.535-19.655 19.695zM273.053 466.693l5.698 6.289c.241-.279.481-.559.719-.841.238-.277.474-.553.708-.835.352-.424.7-.851 1.045-1.279.219-.271.441-.54.659-.813.367-.462.727-.929 1.088-1.397.188-.244.379-.485.564-.73.449-.59.889-1.187 1.326-1.785.091-.126.187-.248.277-.375.528-.728 1.047-1.463 1.557-2.202.128-.184.252-.373.379-.559.376-.553.752-1.108 1.121-1.666.175-.269.345-.539.52-.808.31-.482.621-.963.925-1.448.186-.3.369-.602.554-.903.21-.343.419-.687.626-1.032l-6.09-4.186-11.676 14.57zM215.427 405.459c8.094-4.658 14.769-10.244 19.846-16.609a55.7 55.7 0 0 0 2.777-3.818l-7.252-4.02-18.829 17.291 3.458 7.156zM198.328 467.003v6.161c3.38-.328 6.7-.764 9.892-1.296v-28.932c-7.19 2.252-14.729 3.636-22.44 4.119v14.994h8.918c2.035 0 3.63 2.176 3.63 4.954zM225.214 377.915l-9.291-5.149a43.19 43.19 0 0 1-7.032 7.203 48.355 48.355 0 0 1-4.283 3.106l4.606 9.53 16-14.69zM280.905 421.256c-.638 2.737-1.572 5.601-2.775 8.513a66.346 66.346 0 0 1-3.864 7.812l19.539 13.431c.112-.212.225-.425.337-.64a94.558 94.558 0 0 0 1.027-2.015c.153-.31.309-.619.46-.93.18-.367.354-.736.529-1.107.144-.301.288-.604.428-.908.176-.38.348-.762.52-1.145.132-.294.265-.588.395-.882.176-.4.346-.803.517-1.205.119-.279.24-.557.356-.837.18-.432.354-.867.528-1.301.101-.251.205-.501.303-.754.201-.51.396-1.022.588-1.535.068-.178.137-.354.203-.532.191-.512.371-1.027.553-1.54v-17.038h-19.127a38.448 38.448 0 0 1-.517 2.613zM287.895 169.928l12.653 12.654V170.22l-6.466-6.465-6.187 6.173zM148.101 204.565l8.604 8.602 10.79-10.792-8.602-8.602-10.792 10.792z"/><path fill="#BBCEC2" d="M281.707 412.586h9.962v-21.351h-9.962v21.351zm0 0h9.962v-21.351h-9.962v21.351zM33.519 86.967h500v600h-500v-600zm0 600h500v-600h-500v600z"/><path fill="#BBCEC2" d="m97.654 461.259 9.728-13.663-6.225-4.275-9.727 13.663 6.224 4.275zM110.895 442.662l10.292-14.454a88.78 88.78 0 0 1-15.369-14.656L93.567 430.76l17.328 11.902zM93.108 392.778a93.391 93.391 0 0 1-5.018-14.81l-8.567 8.512 8.418 11.436 5.167-5.138zM89.432 426.123l12.539-17.61a88.242 88.242 0 0 1-6.09-9.951l-15.442 15.349 8.993 12.212zM76.096 418.226 65.56 428.692l11.208 15.218 8.968-12.594-9.64-13.09zM138.116 164.434l6.506-6.503L156.555 146l-9.756-9.754h-21.793l-7.539 7.539 20.649 20.649zM90.054 435.694l-9.729 13.662 6.113 4.198 9.728-13.661-6.112-4.199zM188.146 278.929a60.762 60.762 0 0 1-2.799-5.998h-20.061c-.001.061-.004.12-.006.181l-.005.169-.026.825-.005.217c-.009.273-.016.552-.023.833l-.005.207c-.007.337-.016.679-.022 1.028l-.001.024-.019 1.129-.002.169c-.005.306-.008.617-.012.933l-.004.376-.008.793c-.002.135-.002.27-.002.406l-.003.292h23.884a56.708 56.708 0 0 1-.881-1.584zM181.907 300.594h-16.774v9.27h16.774v-9.27zM83.598 402.233l-8.419-11.438-6.789 6.747 8.419 11.439 6.789-6.748zM173.094 286.57h-7.961v7.968h13.958l-5.997-7.968zM63.392 400.969v21.339l9.074-9.012-9.074-12.327zM65.788 378.044l-2.396 2.38v13.544l8.156-8.104-5.76-7.82zM86.603 370.909c-.922-5.339-1.438-10.922-1.534-16.616-.187 0-.368.002-.552.004-.313.002-.627.003-.934.007-.212.003-.418.008-.627.013-.296.006-.593.01-.884.019-.21.006-.413.015-.621.022-.284.009-.569.019-.848.031-.202.009-.398.02-.598.031a70.66 70.66 0 0 0-.823.043c-.199.011-.392.027-.589.04-.264.018-.53.034-.79.055-.191.015-.377.032-.566.048-.258.023-.517.044-.77.068-.185.018-.364.039-.546.057-.25.028-.503.053-.749.081-.179.021-.353.045-.53.067-.243.03-.487.059-.725.093-.174.024-.342.051-.514.076-.235.035-.471.068-.702.105-.165.027-.325.056-.487.084-.232.04-.466.078-.694.12-.151.028-.296.058-.445.088-.234.045-.469.09-.699.137-.143.031-.283.064-.425.096-.229.05-.459.1-.683.153-.132.031-.261.066-.392.099-.229.057-.46.112-.685.172-.112.03-.22.063-.332.093-.238.066-.478.131-.712.201-.094.028-.185.058-.278.087-.247.075-.494.15-.736.229l-.125.044c-.288.095-.574.193-.855.295l-.015.006a35.51 35.51 0 0 0-1.519.595c-.077.032-.151.066-.227.1v6.826l12.5 16.972 10.711-10.641zM186.21 332.103l6.749 11.69h23.205l-18.713-24.862-11.241 13.172zM219.127 174.06l-10.167-10.166-9.833 9.833 10.434 10.435a175.671 175.671 0 0 1 7.233-7.79 177.39 177.39 0 0 1 2.333-2.312zM76.811 454.29l-8.122 11.406c.315.354.629.702.944 1.049.261.288.522.581.782.865.419.457.838.904 1.257 1.351.231.248.463.501.695.745.545.576 1.091 1.141 1.637 1.701.104.108.208.219.312.324.648.663 1.297 1.313 1.947 1.954.218.214.437.423.655.635.435.424.869.848 1.306 1.263.265.253.532.5.799.75.39.365.781.733 1.173 1.093.285.26.571.516.856.773.377.341.753.68 1.13 1.014.297.262.594.52.892.777.256.223.513.445.77.664l10.297-14.462-17.33-11.902zM258.372 220.575l-10.527-10.527-6.192 6.205 10.525 10.525 6.194-6.203zM64.617 460.975l8.454-11.873-9.678-13.141v23.538a133.108 133.108 0 0 0 1.224 1.476z"/><path fill="#BBCEC2" d="M221.883 578.331h31.401v-8.839h-31.401v8.839zm0 0h31.401v-8.839h-31.401v8.839zM33.519 86.967h500v600h-500v-600zm0 600h500v-600h-500v600z"/><path fill="#BBCEC2" d="m154.611 189.49-13.353-13.351-2.633 2.633-5.622 5.622-9.132 9.131 13.351 13.351 17.389-17.386z"/><path fill="#BBCEC2" d="M242.732 563.436h10.552v-9.258h-10.552v9.258zm0 0h10.552v-9.258h-10.552v9.258zM33.519 86.967h500v600h-500v-600zm0 600h500v-600h-500v600z"/><path fill="#BBCEC2" d="M259.34 554.177v24.153h9.164l1.118-1.118v-23.035H259.34zM136.109 399.751c.383.344.777.687 1.193 1.039l6.736-11.675 1.083-1.876-6.484-12.523-15.474 8.012a56.474 56.474 0 0 0 12.946 17.023zM204.678 159.611l-16.998-16.998-9.834 9.833 4.827 4.827 8.171 8.17 4.001 4.002 9.833-9.834zM159.769 412.846v-22.449l-9.453-.044-8.157 14.136c5.299 3.62 11.216 6.426 17.61 8.357zM166.142 140.742l7.422 7.422 9.833-9.833-2.085-2.085h-16.711l-1.478 1.477 3.019 3.019zM147.204 509.297c.148.022.294.048.442.07l.846.128c.379.056.757.112 1.138.166l.889.123c.38.052.758.102 1.138.152.299.038.599.077.9.114.389.049.78.096 1.171.142l.881.101c.413.047.829.092 1.246.136l.824.086c.461.047.921.091 1.385.135l.708.066c.556.051 1.115.097 1.673.142l.445.037c.72.056 1.444.11 2.169.159a20.169 20.169 0 0 1 13.839-13.672V479.94c-3.173-.111-6.3-.342-9.313-.693l-20.381 30.05zM96.316 473.582l-7.772 10.915c.335.262.67.52 1.006.776.359.276.72.555 1.08.826.445.334.893.658 1.34.982.361.265.723.532 1.086.79.451.322.904.633 1.356.947.362.25.723.505 1.087.75.462.313.926.616 1.39.92.358.235.715.475 1.075.705.481.309.966.606 1.45.907.348.214.692.435 1.042.647.517.313 1.04.618 1.562.924.32.186.638.379.96.562.608.349 1.222.687 1.837 1.025.24.132.479.269.719.4.863.465 1.731.921 2.607 1.367a94.3 94.3 0 0 0 1.623.806c.155.076.311.149.467.224.386.187.773.374 1.165.557.218.102.438.201.656.303.331.153.664.307.997.456.252.114.505.225.757.336.207.092.413.182.62.271l6.666-9.376-24.776-17.02zM165.826 414.375a68.64 68.64 0 0 0 11.072 1.335v-25.231l-11.072-.051v23.947zM135.85 369.338l-7.792-15.047h-11.492c.199 8.243 1.606 15.926 4.19 22.862l15.094-7.815zM156.266 367.94l-7.881-13.649h-13.507l13.84 26.72 7.548-13.071zM206.34 578.33h9.486v-8.84h-9.486v8.84zM160.937 478.26a96.82 96.82 0 0 1-18.831-5.432l-11.83 16.023 17.152 9.328 13.509-19.919zM108.571 508.873c-.063-.029-.126-.061-.189-.089-.764-.348-1.524-.701-2.279-1.062-.13-.063-.258-.124-.386-.188-.786-.378-1.565-.762-2.333-1.151a127.028 127.028 0 0 1-7.792-4.321 133.328 133.328 0 0 1-11.38-7.656l-7.083 9.948 23.208 16.083 8.234-11.564zM210.436 303.717l-8.957 10.494 10.474 13.915 13.752-11.296c-4.417-4.521-9.549-8.929-15.269-13.113zM156.135 588.829h-15.024v16.394h15.024v-16.394zM162.192 631.431h13.898v-42.602h-13.898V631.431zM141.112 548.121h34.979v-12.132a20.146 20.146 0 0 1-13.301-14.43c-.971-.064-1.938-.134-2.899-.212-.295-.024-.587-.051-.88-.077-.664-.055-1.328-.111-1.987-.172-.354-.035-.705-.073-1.059-.107-.593-.059-1.186-.118-1.775-.182-.377-.042-.751-.086-1.127-.13-.557-.064-1.116-.127-1.669-.196-.392-.049-.781-.101-1.171-.152-.53-.069-1.059-.138-1.584-.21-.403-.056-.802-.116-1.204-.175-.504-.073-1.008-.146-1.509-.224l-1.232-.198c-.478-.079-.957-.156-1.432-.238-.423-.072-.844-.147-1.264-.223-.294-.052-.594-.103-.886-.157v29.215zM300.38 293.217a61.867 61.867 0 0 0-1.332-2.274c-.053-.087-.109-.173-.163-.26a67.48 67.48 0 0 0-1.27-1.971c-.096-.143-.195-.284-.293-.426a64.445 64.445 0 0 0-1.737-2.423c-.094-.123-.184-.248-.278-.37a58.493 58.493 0 0 0-4.91-5.647l-.161-.164-2.331-2.33-3.748-3.748-1.274-1.274-11.378 11.394 14.621 23.124h14.423v-13.317c-.056-.101-.107-.203-.163-.304l-.006-.01zM64.567 346.216c.245-.07.49-.141.738-.209.189-.051.381-.099.571-.148.241-.062.482-.125.725-.184.197-.048.398-.093.597-.139.243-.055.484-.112.729-.164.205-.045.412-.087.619-.129.246-.05.492-.098.741-.147.211-.039.425-.079.638-.117a60.265 60.265 0 0 1 1.413-.237l.408-.065v-7.473h-8.353v9.366c.215-.068.428-.137.646-.203.174-.052.352-.1.528-.151zM105.315 523.886l15.941 11.045 12.653-17.532c-.194-.046-.386-.096-.58-.142a168.365 168.365 0 0 1-3.895-.985c-.507-.135-1.014-.275-1.518-.415-.386-.108-.771-.214-1.156-.325-.518-.15-1.034-.303-1.548-.459-.362-.107-.725-.214-1.085-.326-.57-.175-1.135-.358-1.699-.54-.3-.096-.6-.19-.898-.288-.853-.282-1.702-.571-2.544-.868l-.396-.144c-.716-.254-1.426-.512-2.133-.777-.29-.108-.575-.222-.864-.333-.438-.168-.878-.333-1.311-.505l-8.967 12.594zM135.054 605.222v-16.394h-31.439l-11.672 16.395 43.111-.001zM112.15 291.225a62.405 62.405 0 0 1 5.308 13.447l18.503-10.505-25.848-25.848-8.44 8.441c4.184 4.432 7.706 9.296 10.477 14.465zM276.889 652.633h1.434c1.019 0 2.021-.075 3.003-.208h-4.437v.208zM144.962 260.269l7.591 7.59 3.888 3.888c.171-4.376.477-8.145.945-11.543l.007-.052.037-.25c.469-3.31 1.094-6.272 1.908-9.105.004-.013.007-.027.012-.039.164-.569.34-1.133.521-1.695.048-.146.094-.292.143-.437.188-.566.382-1.13.589-1.692l.077-.203c.192-.515.392-1.027.599-1.54l.165-.404c.232-.56.473-1.119.723-1.679.013-.026.023-.051.035-.077l-17.24 17.238zM203.779 611.28v26.207h-17.191v15.146h29.238V611.28h-12.047zM192.949 286.57h-12.276l5.997 7.968h.585v.776l10.493 13.94 7.902-9.26c-4.936-4.115-9.201-8.624-12.701-13.424zM221.883 652.633h12.986v-16.238h-12.986v16.238zM240.927 652.633h29.906v-16.238h-29.906v16.238zM253.283 611.28h-12.356v19.058h12.356V611.28zM276.889 646.368h16.893a22.206 22.206 0 0 0 5.944-9.974h-22.837v9.974zM234.869 611.28h-12.986v19.058h12.986V611.28zM143.154 297.048l-6.759 3.837v9.94h6.759v-13.777zM154.391 224.044l9.116 9.116 16.909-16.909.424-.531-9.063-9.062-17.386 17.386zM235.617 159.644c9.28-7.278 19.335-13.927 29.94-19.793l-3.606-3.606h-25.342l-12.196 12.195 11.204 11.204zM150.108 228.327l-18.546 18.543 6.584 6.585 2.532 2.532 18.546-18.545-9.116-9.115zM116.441 136.246h-6.511l3.255 3.256 3.256-3.256zM208.961 155.329l8.481-8.481-10.602-10.602h-16.962l19.083 19.083zM72.843 569.491l-6.294 8.84h34.058v-8.84H72.843zM132.94 211.159l-13.351-13.351-8.329 8.329a20.192 20.192 0 0 1 1.041 1.86 19.936 19.936 0 0 1 1.457 3.972c.401 1.598.607 3.252.607 4.929v.001a20.177 20.177 0 0 1-2.695 10.078l2.726 2.726 18.544-18.544zM63.392 502.206v3.342l1.594-2.238-1.594-1.104zM223.524 169.892a204.137 204.137 0 0 1 7.355-6.422l-10.748-10.746-6.888 6.889 10.281 10.279zM76.04 487.786a155.343 155.343 0 0 1-1.762-1.561c-.212-.19-.423-.385-.634-.577-.376-.342-.75-.682-1.125-1.03-.248-.23-.496-.466-.743-.698-.338-.317-.675-.633-1.012-.954-.261-.249-.522-.504-.782-.757a118.811 118.811 0 0 1-1.765-1.733c-.315-.313-.631-.627-.946-.946-.268-.271-.536-.548-.804-.822-.31-.318-.618-.634-.927-.954l-.81-.853a141.065 141.065 0 0 1-1.338-1.426v19.363l5.107 3.538 7.541-10.59z"/><path fill="#BBCEC2" d="M197.722 606.031v-.809H215.826v-16.393h-29.238v42.602h11.134v-25.4zM100.412 652.633h12.05v-5.568h-12.05v5.568zM63.392 627.33v3.077c0 1.355.128 2.678.36 3.965l3.206-4.503-3.566-2.539zM141.11 652.633h15.024v-15.146H141.11v15.146zM118.518 652.632h16.536v-15.145h-16.536v15.145zM96.182 588.829h-32.79v.352l21.592 15.375 11.198-15.727zM70.911 647.065a22.138 22.138 0 0 0 14.707 5.568h8.739v-5.568H70.911zM269.622 605.223v-15.276l-1.118-1.118h-9.164v16.394h10.282zM101.511 251.153l8.603 8.602 9.743-9.744-4.303-4.301-4.298-4.301-9.745 9.744zM63.392 526.95v45.372l21.636-30.383-21.636-14.989zM272.472 611.508h-13.131v18.83h31.098v-18.83h-17.967zM253.284 588.829h-31.402v16.394h31.402v-16.394zM156.135 611.28h-37.616v20.15h37.616v-20.15zM81.471 609.488l-18.079-12.872v23.278l7.08 5.041 10.999-15.447zM81.876 515.014l-8.261-5.725-8.285 11.635 8.262 5.725 8.284-11.635zM162.192 652.633h13.898v-15.146h-13.898v15.146zM221.883 611.28h12.986v19.058h-12.986V611.28zM63.392 238.293v.867l.434-.434-.434-.433zM300.55 460.474v-.003c-.082.139-.161.279-.243.418.082-.138.162-.277.243-.415zM300.549 224.136l-8.51 8.509 8.51-8.509zM229.187 136.245h-1.143l-6.319 6.319-6.32-6.319h-1.142l7.462 7.461 7.462-7.461zM163.123 137.722l1.478-1.477h-1.142l-.906.906.57.571zM173.563 148.164l.57.57 10.405-10.403-2.085-2.085h-1.142l2.085 2.085-9.833 9.833zM290.236 279.682l-2.967-2.967-3.112-3.112 3.748 3.748 2.331 2.331zM264.322 238.921l3.299 3.298 2.353-2.353-2.353 2.353-3.299-3.298zM104.246 234.401l1.254 1.254-1.254-1.254a20.165 20.165 0 0 1-10.077 2.695h.001a20.164 20.164 0 0 0 10.076-2.695zM74.121 219.336zM74.729 211.445zM192.959 354.29l-5.57 9.648 5.57-9.648zM83.409 233.992zM273.586 478.613a.022.022 0 0 0 .005-.004l-.006.005.001-.001zM64.328 281.414l.091.038c.395.17.786.344 1.176.521l.049.021.056.025c.4.183.794.368 1.184.554l.029.014.059.028c.383.184.768.376 1.15.569l.032.016.051.025c.403.205.808.417 1.205.629.392.209.785.426 1.182.65l.003.002.016.008a56.618 56.618 0 0 1 6.593 4.342c.302.232.601.467.896.703l.043.033.065.051.12.099.077.063c4.849 3.934 8.66 8.452 11.324 13.43a38.7 38.7 0 0 1 1.516 3.181c1.921 4.553 2.898 9.431 2.906 14.499 0 1.167-.054 2.374-.162 3.592a44.355 44.355 0 0 1-.594 4.284 133.077 133.077 0 0 0-1.974 15.002h19.44c.231-2.674.572-5.423 1.017-8.186.197-1.213.374-2.236.56-3.22.209-1.106.388-2.228.548-3.431a60.94 60.94 0 0 0 .545-8.04 56.809 56.809 0 0 0-6.716-26.827 59.88 59.88 0 0 0-2.679-4.495 58.773 58.773 0 0 0-1.382-2.029c-2.582-3.615-5.626-7.029-9.045-10.149-4.86-4.437-10.484-8.293-16.714-11.462a85.05 85.05 0 0 0-1.824-.891c-3.741-1.791-7.69-3.325-11.778-4.607v20.567c.293.121.586.242.875.366l.06.025zM213.858 188.456l8.805 8.805v.001l1.58 1.579.262.264.263.263 1.053 1.053.481.48.737.737.559.559c.955-1.122 1.93-2.233 2.909-3.312 8.307-9.182 18.287-17.852 29.663-25.771a206.828 206.828 0 0 1 3.755-2.552 204.623 204.623 0 0 1 24.79-14.049l.19-.092.246-.119a232.06 232.06 0 0 1 3.799-1.756 200.447 200.447 0 0 1 7.022-2.988 20.012 20.012 0 0 0-14.781-14.748c-24.225 10.886-46.599 26.119-64.086 43.818a168.425 168.425 0 0 0-7.247 7.828zM259.503 319.014a61.699 61.699 0 0 1-.245-.397 98.612 98.612 0 0 0-2.346-3.678l-.023-.034-.023-.034-.026-.038-.027-.04-.114-.164-.089-.133a101.657 101.657 0 0 0-2.003-2.837 103.227 103.227 0 0 0-2.205-2.914c-7.176-9.157-16.326-17.816-27.193-25.739-5.401-3.943-9.701-8.306-12.781-12.97a39.36 39.36 0 0 1-1.851-3.104 37.92 37.92 0 0 1-1.863-4.061c-1.599-4.122-2.401-8.404-2.455-13.094l-.004-.172a8.671 8.671 0 0 1-.003-.228c0-.927.034-1.901.101-2.897a47.612 47.612 0 0 1 .561-4.703l.028-.16.015-.088c.546-3.131 1.417-6.369 2.585-9.626.188-.527.392-1.058.574-1.528.308-.802.607-1.542.913-2.262a76.09 76.09 0 0 1 .976-2.199c2.114-4.564 4.829-9.253 8.067-13.939.328-.473.668-.957 1.015-1.442l-.377-.377-3.002-3.002-.316-.316-.737-.737-.527-.527-1.581-1.579-3.955-3.956-3.312-3.313-1.576 1.991c-3.561 4.931-6.68 9.959-9.269 14.944a101.378 101.378 0 0 0-2.453 5.082c-4.711 10.471-7.103 20.777-7.11 30.632-.013 7.822 1.52 15.362 4.552 22.411a56.052 56.052 0 0 0 2.059 4.283 59.425 59.425 0 0 0 4.397 6.974c3.959 5.421 8.989 10.437 14.951 14.908l.267.2c.229.174.459.347.694.517 11.91 8.679 21.246 18.154 27.748 28.161a75.48 75.48 0 0 1 1.715 2.763c2.756 4.664 4.894 9.439 6.364 14.201h20.046c-1.854-8.208-5.125-16.302-9.731-24.073a35.102 35.102 0 0 0-.431-.706zM89.366 180.008c.641.637 1.338.987 1.965.987.372-.003.886-.087 1.599-.712.54-.475 1.352-1.447 2.15-3.369 1.147-2.799 2.979-4.797 5.297-5.774 1.769-.754 3.485-.865 4.864-.955.18-.011.354-.023.523-.035 1.273-.079 1.652-.231 1.738-.276.098-.05.101-.054.128-.095.27-.44.408-.86.408-1.269.001-.805-.57-1.593-1.651-2.279-1.378-.869-3.456-1.367-5.696-1.367h-.022c-.682 0-1.38.043-2.094.128-2.179.26-4.137.939-5.822 2.021a41.623 41.623 0 0 1-2.899 2.616c-1.108 1.4-1.871 3.048-2.153 4.655a11.37 11.37 0 0 1-.117 1.05c-.004.101-.007.2-.007.299 0 .546.064 1.062.19 1.531.292 1.09.874 2.126 1.599 2.844zM199.641 438.974a86.86 86.86 0 0 0 9.515-2.732c.913-.32 1.673-.598 2.391-.873 3.2-1.233 6.356-2.6 9.378-4.063l.159-.077.21-.101c13.343-6.513 24.403-14.986 32.869-25.182.325-.392.659-.801.993-1.219a83.216 83.216 0 0 0 3.621-4.906 76.154 76.154 0 0 0 5.635-9.744 73.48 73.48 0 0 0 1.943-4.393 70.95 70.95 0 0 0 3.318-10.502 68.763 68.763 0 0 0 1.781-15.569c0-1.699-.071-3.484-.212-5.323h-19.459c.19 1.804.287 3.589.287 5.32-.012 7.49-1.664 14.765-4.91 21.626-1.862 3.931-4.268 7.761-7.147 11.384-5.776 7.243-13.366 13.521-22.562 18.66-.62.346-1.26.694-1.904 1.034a101.77 101.77 0 0 1-10.962 4.967c-5.823 2.243-12.066 3.672-18.558 4.249l-.246.021v19.432a91.237 91.237 0 0 0 12.043-1.618 82.797 82.797 0 0 0 1.817-.391zM98.767 390.601c.461 1.049.943 2.09 1.436 3.098 5.006 10.229 11.977 19.165 20.72 26.558a84.984 84.984 0 0 0 11.709 8.305c13.239 7.802 28.529 12.15 44.265 12.597v-19.39a31.583 31.583 0 0 1-1.109-.047l-.272-.016-.247-.012-.598-.033c-.177-.012-.355-.027-.531-.04l-.26-.02-.24-.019a27.751 27.751 0 0 1-.58-.045c-.182-.015-.363-.034-.545-.052l-.263-.027-.266-.025c-.178-.018-.356-.034-.533-.054-.187-.02-.373-.043-.561-.065l-.245-.031-.229-.027c-.19-.022-.381-.044-.572-.069-.189-.025-.38-.053-.569-.08l-.242-.035-.263-.036c-.176-.026-.351-.049-.526-.078-.199-.03-.399-.062-.599-.095l-.242-.042-.268-.043a69.996 69.996 0 0 1-.485-.08c-.204-.035-.406-.075-.607-.113l-.243-.046-.273-.051c-.156-.029-.312-.057-.469-.088-.202-.039-.401-.082-.601-.124l-.273-.058-.258-.054c-.15-.031-.301-.062-.453-.095-.233-.052-.469-.108-.703-.162l-.19-.045-.234-.055a15.482 15.482 0 0 1-.449-.103c-.228-.056-.455-.115-.681-.173l-.237-.061-.255-.065a42.308 42.308 0 0 1-1.167-.316l-.188-.053-.222-.061a17.675 17.675 0 0 1-.377-.105 77.563 77.563 0 0 1-.821-.248l-.162-.049-.202-.062a11.59 11.59 0 0 1-.362-.11 58.42 58.42 0 0 1-.923-.3l-.127-.042-.192-.062-.295-.096c-.342-.116-.683-.238-1.024-.36l-.077-.027-.166-.059c-.087-.03-.174-.06-.259-.091-.382-.138-.763-.284-1.142-.429l-.16-.061c-.07-.026-.14-.051-.211-.079a74.234 74.234 0 0 1-1.178-.474l-.131-.052-.192-.077c-.4-.167-.799-.34-1.198-.514l-.13-.056a5.19 5.19 0 0 1-.156-.066 67.396 67.396 0 0 1-1.3-.594l-.067-.03-.105-.047a67.589 67.589 0 0 1-1.349-.654l-.037-.018-.068-.033c-.443-.219-.891-.45-1.37-.701l-.068-.035c-4.845-2.557-9.301-5.647-13.237-9.183a62.575 62.575 0 0 1-11.748-14.149 63.733 63.733 0 0 1-3.812-7.323 67.524 67.524 0 0 1-2.296-6.005c-1.452-4.41-2.491-9.091-3.088-13.912a85.498 85.498 0 0 1-.61-8.581H91.127c.129 7.207.969 14.199 2.5 20.794 1.251 5.397 2.981 10.618 5.14 15.516z"/><path fill="#BBCEC2" d="m220.71 210.156-3.003-3.002-.314-.316.314.316 3.003 3.002zM225.821 200.422l.801.8.417.417-.737-.738-.481-.479-1.053-1.053-.262-.263.262.263 1.053 1.053z"/><path fill="#E0EEE4" d="M284.616 226.365a4687.173 4687.173 0 0 1-3.139 3.141c-6.016 6.016-10.894 10.893-13.855 13.856l-12.302-12.301-3.14-3.141-11.668-11.667-1.569-1.569-1.57-1.57-6.571-6.572a2345.227 2345.227 0 0 1-3.153-3.153l-2.398-2.397-1.579-1.579-1.58-1.58-9.336-9.336-1.576-1.576-1.575-1.576-11.619-11.618-3.14-3.141-18.141-18.14-3.141-3.141a120624.74 120624.74 0 0 1-13.059-13.059h-12.563l9.756 9.754-19.581 19.576-1.58 1.582c-.516.513-1.035 1.033-1.56 1.559l-9.465 9.465-1.818 1.817-20.009 20.009a19.292 19.292 0 0 0-9.515-2.499 19.313 19.313 0 0 0-10.205 2.905l-6.986-6.987-1.713-1.713-11.873-11.873v12.562l5.02 5.02 3.14 3.14 6.132 6.132a19.298 19.298 0 0 0-2.905 10.204c.001 3.46.912 6.705 2.499 9.516l-1.071 1.072-3.141 3.14-9.24 9.241-.434.433v12.563l3.575-3.575 3.14-3.14 13.193-13.193a19.31 19.31 0 0 0 10.869 3.332 19.296 19.296 0 0 0 10.203-2.904l3.742 3.742 3.141 3.142 9.744 9.743 3.139 3.14 10.257 10.258 3.142 3.141 17.64 17.637 1.88 1.881v44.318l-.676 1.173-1.282 2.22-6.248 10.822H85.272c-2.932 0-5.682.096-8.276.299-1.533.12-3.012.279-4.442.477-3.291.456-6.314 1.141-9.161 2.056v9.44c.487-.202.979-.398 1.484-.582 5.193-1.88 11.617-2.808 20.382-2.808h63.593l8.347 14.456 1.281 2.221h19.226v127.843a19.415 19.415 0 0 0-14.044 13.9c-6.243-.403-12.177-1.071-17.839-2.009a142.013 142.013 0 0 1-4.779-.868c-7.835-1.549-15.145-3.64-22.026-6.286l-.09-.035c-.713-.274-1.42-.557-2.125-.844a114.08 114.08 0 0 1-2.031-.849l-.068-.03a118 118 0 0 1-6.928-3.238c-7.167-3.644-13.902-7.994-20.341-13.083a132.13 132.13 0 0 1-3.446-2.816c-5.631-4.761-11.044-10.118-16.332-16.09a196.365 196.365 0 0 1-2.99-3.458c-.426-.504-.85-1.019-1.274-1.53v13.502c4.441 4.832 9.001 9.305 13.731 13.388l-8.429 11.837-2.576 3.618-2.726 3.827v15.314l.806-1.132 9.222-12.95 2.576-3.617 8.04-11.292c6.238 4.741 12.779 8.876 19.714 12.401a127.73 127.73 0 0 0 10.242 4.646c6.9 2.772 14.168 5.001 21.869 6.708l.929.2a157.942 157.942 0 0 0 3.513.716c7.31 1.399 15.008 2.346 23.141 2.859 1.46 6.991 6.681 12.594 13.453 14.604V579.139H63.393v8.882H176.898v64.612h8.883v-64.612H268.84l1.59 1.591 4.441 4.441 16.376 16.376.271.27 9.032 9.032V607.17l-23.591-23.59 23.591-23.59v-12.562l-3.499 3.499-4.392 4.391-17.788 17.789-4.441 4.441-1.59 1.591h-83.059v-43.236c7.381-1.29 13.321-6.747 15.31-13.863.074-.26.141-.522.203-.788H300.55v-8.883h-58.939c9.983-4.343 19.462-10.15 28.11-17.165a125.78 125.78 0 0 0 2.466-2.052 127.91 127.91 0 0 0 1.976-1.719 130.052 130.052 0 0 0 6.337-6.032 123.54 123.54 0 0 0 3.18-3.367 131.214 131.214 0 0 0 3.877-4.44 128.539 128.539 0 0 0 12.993-18.737v-20.878a115.02 115.02 0 0 1-8.645 18.096 119.964 119.964 0 0 1-13.136 18.128 122.058 122.058 0 0 1-4.606 4.975 118.746 118.746 0 0 1-21.001 17.017c-12.323 7.82-25.875 13.104-39.692 15.181a90.118 90.118 0 0 1-4.44.552 86.363 86.363 0 0 1-7.739.426c-1.825-7.753-8.295-13.705-16.317-14.76V366.507l7.519-13.024H296.158a16.472 16.472 0 0 0 4.392 7.376v-23.634a16.47 16.47 0 0 0-4.391 7.376H192.493l-7.267-12.588-2.018-3.494-.338-.587-.005-.007h-18.539v-42.163l.001-2.221c-.001-.754.001-1.493.005-2.22.014-3.337.066-6.384.176-9.197a134.592 134.592 0 0 1 .237-4.441c.392-5.668 1.11-10.352 2.354-14.65 2.236-7.738 6.201-14.6 13.665-24.288.279-.348 2.565-3.193 6.957-8.698.941-1.181 1.983-2.488 3.119-3.916.821-1.03 1.694-2.125 2.615-3.285 3.232-4.064 7.094-8.926 11.606-14.619h.001l2.149-2.713 7.909 7.909 1.58 1.58 1.579 1.579a1228755.656 1228755.656 0 0 0 14.389 14.389l1.57 1.57 11.665 11.664 3.141 3.142 13.869 13.869 3.141 3.14 13.69 13.69 3.141 3.141 7.924 7.924c3.686 3.682 7.032 8.112 9.741 12.778v-15.305a67.153 67.153 0 0 0-3.46-3.754l-7.93-7.929-1.581-1.58a757.361 757.361 0 0 0-1.559-1.56c-3.439-3.439-7.528-7.529-12.119-12.118 2.963-2.963 7.842-7.84 13.857-13.856l1.57-1.571 1.569-1.57 9.653-9.651v-12.562l-1.631 1.631-14.303 14.301zm-180.576-5.876a10.555 10.555 0 0 1-6.279 6.282c-1.12.408-2.329.632-3.591.635a10.491 10.491 0 0 1-4.363-.955 10.543 10.543 0 0 1-5.771-6.792c-.24-.88-.371-1.804-.373-2.76.002-1.261.227-2.47.635-3.59a10.518 10.518 0 0 1 9.872-6.917c.955.002 1.88.133 2.76.373a10.545 10.545 0 0 1 6.79 5.771 10.476 10.476 0 0 1 .32 7.953zm87.899 291.88a10.52 10.52 0 0 1 .991 4.441 10.52 10.52 0 0 1-10.507 10.507 10.52 10.52 0 0 1-10.507-10.507 10.492 10.492 0 0 1 1.019-4.506 10.562 10.562 0 0 1 5.099-5.033 10.455 10.455 0 0 1 4.389-.967c.88.001 1.734.113 2.551.317a10.54 10.54 0 0 1 6.965 5.748zM178.67 335.192l7.994 13.85-1.69 2.93-3.634 6.294-2.67 4.626h-15.994l-6.364-11.023-1.631-2.827 1.631-2.827 5.929-10.267.435-.756h15.994zm6.038-123.028-2.317 2.909c-.162.201-.312.391-.469.587l-.898 1.125a3319.452 3319.452 0 0 1-4.143 5.183c-1.213 1.516-1.808 2.256-1.81 2.259l-.021.026-.024.031c-3.552 4.601-6.444 8.741-8.791 12.746a71.464 71.464 0 0 0-1.076 1.903 65.424 65.424 0 0 0-1.139 2.161c-1.639 3.268-2.923 6.515-3.906 9.926-1.909 6.647-2.665 13.709-2.929 22.612l-13.365-13.363-3.141-3.141-10.258-10.258-1.708-1.707-14.317-14.317-3.743-3.743a19.3 19.3 0 0 0 2.905-10.204 19.318 19.318 0 0 0-3.332-10.869l9.364-9.364 3.14-3.14 18.529-18.529 3.14-3.14c4.111-4.109 7.814-7.811 10.982-10.98l8.597-8.596 6.793 6.793 7.699 7.699 3.141 3.141 20.426 20.426a9996.354 9996.354 0 0 1-17.329 21.824z"/><path fill="#BBCEC2" d="m67.27 197.424-3.878-3.878 3.878 3.878zM74.121 219.336zM181.499 229.118l-.072.09.019-.022a1.57 1.57 0 0 1 .053-.068zM224.527 213.972l-.648-.648-.006-.005.284.283.37.37zM266.053 255.499l7.332 7.333-7.332-7.333zM278.601 268.047l-5.217-5.216 5.217 5.216zM282.885 272.33l1.273 1.274-1.273-1.274zM198.494 529.02v.001-.001zM229.12 203.719l-.143-.143.978.979-.16-.161-.675-.675zM227.598 202.197l-.559-.559.559.559zM274.666 477.493v-.001l-.194.204.194-.203zM173.612 520.854zM172.723 516.808v.001a9.657 9.657 0 0 1 0-.001zM84.544 215.793zM133.254 263.409l-4.558-4.558 4.558 4.558zM153.857 284.008l-16.319-16.316 16.319 16.316zM77.802 344.031l.046-.002-.046.002zM174.44 223.722l-.004.005-.017.02.021-.025zM144.961 260.27l7.591 7.59-7.591-7.59zM180.422 216.245l.418-.525-.424.531.006-.006zM140.679 255.987l-2.532-2.532 2.532 2.532zM157.43 259.902c.469-3.309 1.094-6.271 1.909-9.104a.467.467 0 0 1 0-.001c-.815 2.833-1.44 5.795-1.909 9.105zM66.008 356.755a37.26 37.26 0 0 0-.856.295l-.014.006.015-.006c.281-.102.567-.199.855-.295zM77.128 504.354l7.084-9.948-7.084 9.948zM73.615 509.289l-8.284 11.635 8.284-11.635zM95.592 502.063z"/><path fill="#F0F0F0" d="M46.784 289.041a1.45 1.45 0 0 1-1.446-1.446v-36.202c0-.796.651-1.448 1.446-1.448.795 0 1.446.652 1.446 1.448v36.202a1.45 1.45 0 0 1-1.446 1.446z"/><path fill="#404041" d="M316.13 312.777h-.325a1.287 1.287 0 0 1-1.283-1.284v-56.182c0-.706.577-1.284 1.283-1.284h.325c.706 0 1.284.578 1.284 1.284v56.182c0 .706-.578 1.284-1.284 1.284z"/><path fill="#A7A0B3" d="M316.13 254.027h-.325c-.706 0-1.283.578-1.283 1.284v56.182c0 .706.577 1.284 1.283 1.284h.325c.706 0 1.284-.578 1.284-1.284v-56.182c0-.706-.578-1.284-1.284-1.284z"/><path fill="#F0F0F0" d="M46.784 340.801a1.45 1.45 0 0 1-1.446-1.446v-36.202c0-.796.651-1.448 1.446-1.448.795 0 1.446.652 1.446 1.448v36.202a1.45 1.45 0 0 1-1.446 1.446z"/><path d="M87.125 160.363h1.551l2.298 6.757 2.281-6.757h1.54v7.992h-1.033v-4.716c0-.163.003-.433.01-.811.008-.377.011-.781.011-1.213l-2.281 6.74h-1.073l-2.303-6.74v.245c0 .196.005.494.017.895.01.401.016.695.016.884v4.716h-1.034v-7.992zM96.303 160.363h.994v1.11h-.994v-1.11zm0 2.193h.994v5.799h-.994v-5.799zM98.778 162.528h.929v.827c.276-.341.569-.586.877-.734a2.33 2.33 0 0 1 1.028-.223c.827 0 1.385.288 1.675.864.16.316.239.767.239 1.355v3.737h-.995v-3.672c0-.355-.053-.642-.158-.859-.175-.363-.489-.544-.946-.544-.232 0-.423.023-.572.071a1.467 1.467 0 0 0-.707.478 1.463 1.463 0 0 0-.319.596c-.049.205-.073.498-.073.878v3.052h-.978v-5.826zM105.169 160.901h.99v1.627h.931v.8h-.931v3.802c0 .203.07.34.208.409.076.04.202.059.38.059l.151-.003c.055-.003.12-.008.192-.018v.777a2.215 2.215 0 0 1-.352.07 3.216 3.216 0 0 1-.394.023c-.457 0-.767-.117-.93-.351-.163-.234-.245-.538-.245-.912v-3.856h-.789v-.8h.789v-1.627zM257.25 147.224h1.136v1.186h-1.136v-1.186zm0 4.564h1.136v1.186h-1.136v-1.186zM270.506 146.431c.348.641.524 1.521.524 2.638 0 1.059-.159 1.934-.474 2.627-.457.994-1.203 1.49-2.241 1.49-.935 0-1.632-.405-2.089-1.218-.381-.678-.572-1.589-.572-2.732 0-.885.116-1.644.344-2.279.428-1.182 1.202-1.773 2.323-1.773 1.008 0 1.736.416 2.185 1.247zm-.984 5.188c.302-.45.452-1.287.452-2.512 0-.885-.109-1.613-.327-2.184-.217-.572-.642-.857-1.27-.857-.578 0-1 .271-1.267.813-.267.542-.401 1.341-.401 2.396 0 .795.086 1.432.257 1.914.261.737.708 1.104 1.34 1.104.508 0 .915-.224 1.216-.674zM275.62 151.052c0 .613.5 1.112 1.116 1.112h13.788c.615 0 1.115-.499 1.115-1.112v-4.11c0-.613-.5-1.112-1.115-1.112h-13.788c-.616 0-1.116.499-1.116 1.112v4.11zm1.116-5.594h13.788c.822 0 1.488.666 1.488 1.484v4.11c0 .82-.668 1.484-1.488 1.484h-13.788a1.488 1.488 0 0 1-1.489-1.484v-4.11c0-.82.668-1.484 1.489-1.484zm-.744 1.487v4.104c0 .409.335.742.748.742h13.78a.745.745 0 0 0 .748-.742v-4.104a.746.746 0 0 0-.748-.742h-13.78a.744.744 0 0 0-.748.742zm16.393.748h.558c.308 0 .559.25.559.553v1.502a.555.555 0 0 1-.559.553h-.558v-2.608zM80.221 168.368h-1.614v-7.736h1.614v7.736zM76.99 168.368h-1.592v-5.792h1.592v5.792zM73.781 168.368h-1.614v-4.302h1.614v4.302zM70.561 168.368h-1.614v-2.63h1.614v2.63z"/><path fill="#F0F0F0" d="M60.575 634.372h242.683s2.083 9.195 0 11.996c-2.082 2.8-29.745 11.14-33.636 11.14-3.89 0-195.986 5.604-201.59 0-5.605-5.606-10.275-18.095-7.457-23.136zM58.6 156.029h245.932s-6.122-22.327-11.03-22.327c-4.908 0-211.613-2.631-211.613-2.631S60.103 145.285 58.6 156.029z"/><path fill="#9E9E9E" d="M219.517 142.94h-76.524a2.652 2.652 0 0 1-2.644-2.644 2.652 2.652 0 0 1 2.644-2.644h76.524a2.652 2.652 0 0 1 2.644 2.644 2.652 2.652 0 0 1-2.644 2.644zM275.303 140.296a3.865 3.865 0 1 1-7.73 0 3.865 3.865 0 0 1 7.73 0zM260.462 140.296a1.735 1.735 0 1 1-3.47 0 1.735 1.735 0 0 1 3.47 0z"/></g><g clip-path="url(#c)" transform="translate(-35.616)" style="display:block"><g clip-path="url(#d)" transform="translate(100.75 15.75)" style="display:block"><g style="display:block"><path fill="#2B6744" fill-opacity=".76" d="M43.252-28.235c-9.122 1.973-64.801-5.582-73.852-3.594C-61.409-28.69-95.783-1.885-95.514-1.752c0 0 20.209-20.733 63.681-9.146 29.048 10.454 69.32 43.064 69.32 43.064l58.029-45.283-52.264-15.118z" style="mix-blend-mode:multiply" transform="translate(224.079 303.798)"/><path fill="#67AB84" d="M149.705 155.134c-.024.684-.034 1.33-.026 1.94a219.39 219.39 0 0 0-.088 10.077c.08 1.936.175 3.826.286 5.671.326 3.632.72 7.216 1.181 10.752-.034.019-.047.128-.039.325.053-.002.071.015.055.051a155.37 155.37 0 0 0 4.885 21.212c5.119 16.632 12.942 31.878 23.472 45.738 4.959 6.331 10.249 12.165 15.871 17.5.136-.096.3-.174.492-.236 1.632-.534 2.615-.835 2.946-.902a490.05 490.05 0 0 1 8.98-2.443c.707-.352 4.532-2.108 11.476-5.267l15.624-8.399a192.052 192.052 0 0 0 9.183-6.491 224.966 224.966 0 0 1-1.225-4.098c-5.163-16.864-13.083-32.087-23.76-45.672-12.404-16.224-27.172-28.913-44.3-38.067a74.218 74.218 0 0 0-4.608-2.315 104.065 104.065 0 0 0-5.569-2.545 10.844 10.844 0 0 1-.647-.296c-.107-.05-.152-.084-.136-.102a243.344 243.344 0 0 1-5.445-2.12 4.74 4.74 0 0 0-.968-.418 160.663 160.663 0 0 0-6.901-2.221l-.63 7.137a6.856 6.856 0 0 1-.109 1.189z"/><path fill="#B8DFC8" d="M149.68 157.074c-.008-.61.001-1.256.025-1.939-3.482 2.621-6.356 5.054-8.622 7.302 1.543.278 2.545.228 3.004-.151.974-.704 2.839-2.441 5.593-5.212z"/><path fill="#95D0AD" d="M186.598 144.675a142.273 142.273 0 0 0-10.354-5.311 245.57 245.57 0 0 0-7.252-3.042l.002.082c-.068.038-.219.655-.452 1.85-.239 1.446-.651 2.316-1.237 2.609a.39.39 0 0 0-.235.09 4.964 4.964 0 0 0-1.026.716c-2.304 1.298-5.205 3.751-8.699 7.36.357.111.679.251.968.418 1.861.75 3.676 1.457 5.445 2.12-.016.019.03.052.137.102.234.116.448.215.645.297 1.827.769 3.682 1.617 5.569 2.545a73.695 73.695 0 0 1 4.609 2.315c17.128 9.153 31.896 21.842 44.3 38.067 10.677 13.584 18.596 28.808 23.759 45.672.41 1.419.82 2.785 1.226 4.097a192.035 192.035 0 0 1-9.183 6.492l-15.625 8.399c-6.944 3.159-10.769 4.914-11.476 5.267-2.229.576-5.221 1.39-8.979 2.442-.331.068-1.314.369-2.946.903-.192.061-.356.14-.492.236-5.622-5.336-10.911-11.169-15.87-17.501-10.53-13.86-18.355-29.106-23.474-45.738a155.353 155.353 0 0 1-4.884-21.211c.016-.037-.001-.054-.054-.051-.008-.198.005-.306.039-.326-.461-3.536-.856-7.12-1.181-10.751a302.185 302.185 0 0 1-.287-5.671c-.048-3.32-.018-6.679.089-10.077-2.755 2.77-4.619 4.507-5.593 5.211-.46.379-1.462.43-3.004.152-.829-.055-1.83-.221-3.002-.496l-4.461-1.244c-.026 2.353-.014 4.776.036 7.269-.037.397-.003.765.099 1.102-.082.147-.123.237-.122.273.003.072.031.117.085.132a3.91 3.91 0 0 0-.03.567c.059.59.113 1.217.158 1.879 1.603 34.265 13.323 64.901 35.163 91.906a185.523 185.523 0 0 0 11.897 13.3c.931-.452 1.52-.701 1.765-.746 3.327-.82 6.161-1.618 8.505-2.396 4.165-1.429 11.035-4.485 20.609-9.17l20.998-11.18c8.306-5.979 15.795-11.289 22.468-15.926a545.52 545.52 0 0 0 3.185-2.151c-3.905-13.216-9.645-25.899-17.218-38.049a88.308 88.308 0 0 1-2.573-4.176c-12.925-19.471-29.022-34.988-48.291-46.549a295.297 295.297 0 0 0-3.704-2.11c-.018-.017-.035-.017-.052.002z"/><path fill="#538F6D" d="M131.678 164.791c-.02 1.222.209 2.299.687 3.231.188.297.428.557.719.778.132.21.343.435.635.675a3.892 3.892 0 0 0-.03.566c.059.59.112 1.217.156 1.879a61.165 61.165 0 0 0 2.47 2.296c.723.455 1.419.902 2.088 1.342a38.296 38.296 0 0 0 3.399 2.419 68.735 68.735 0 0 0 6.333 3.806c.997.713 1.972 1.31 2.924 1.792.918.501 1.772.932 2.561 1.295.716-2.274 1.47-4.702 2.261-7.284.982-3.524 2.04-7.096 3.175-10.716.162-.366.313-.74.456-1.123a972.709 972.709 0 0 1 4.383-14.078 146.89 146.89 0 0 1 2.141-6.336 34.09 34.09 0 0 0 1.035-4.379c.304-1.575.468-3.153.491-4.734-.261.065-.606.223-1.036.474-.539.165-1.152.442-1.84.829-3.055 1.437-6.512 3.393-10.37 5.868a120.192 120.192 0 0 0-7.454 4.858c-5.353 3.775-9.437 7.364-12.254 10.766a10.23 10.23 0 0 0-1.731 2.198l-1.003 2.574c-.071.398-.136.733-.196 1.004z"/><path fill="#B8DFC6" d="M131.874 163.786c-.072.38-.146.715-.223 1.006-.039 1.599.438 2.935 1.432 4.008.635.871 1.569 1.786 2.805 2.74 1.934 1.663 4.513 3.405 7.738 5.229 3.176 1.917 6.948 3.997 11.316 6.242l2.003-5.226a205.517 205.517 0 0 0 4.82-12.453 3.09 3.09 0 0 1 .097-.193c4.43-12.949 6.812-22.627 7.147-29.033.033-.468-1.407.004-4.323 1.417-3.056 1.436-6.512 3.392-10.37 5.867-10.451 6.445-17.598 12.386-21.439 17.823l-1.003 2.573z"/><path fill="#559B75" d="M399.357 170.27c1.409-9.067 2.09-17.898 2.041-26.495-39.531-1.986-74.814 9.682-105.852 35-17.943 14.654-31.81 31.74-41.601 51.259 3.503 4.821 6.937 9.234 10.306 13.235 1.191 1.358 3.21 3.248 6.057 5.673a170.796 170.796 0 0 0 8.415 6.656c2.349 2.061 4.58 4.021 6.694 5.879 4.172 3.653 6.772 5.793 7.799 6.418 3.561 2.165 7.481 3.943 11.757 5.337 4.278 1.394 6.842 2.352 7.695 2.87 7.27 2.249 10.995 3.396 11.173 3.445 1.161.4 2.347.699 3.561.897a168.86 168.86 0 0 0 15.2-11.071c31.306-25.578 50.224-58.613 56.755-99.103z"/><path fill="#377958" d="m383.27 167.638 1.067-7.314c-29.471 2.079-55.693 12.514-78.663 31.305-13.53 11.078-24.694 24.288-33.492 39.632a167.335 167.335 0 0 0-3.399 6.212 228.176 228.176 0 0 0 4.787 5.038c7.677 7.895 15.721 14.4 24.133 19.515 1.158.704 3.125 1.644 5.902 2.819 2.555 1.101 4.052 1.679 4.492 1.736 2.801.361 5.681.649 8.64.865a145.924 145.924 0 0 0 15.671-11.195c13.53-11.077 24.673-24.226 33.426-39.445 8.733-15.231 14.544-31.621 17.436-49.168z"/><path fill="#1F1D1D" d="m260.38 320.048.001 1.94.02 12.039 18.482-13.986.129-.086-18.632.093z"/><path fill="#393636" d="m260.381 321.988-.001-1.939-18.571-.368 18.592 14.346-.02-12.039z"/><path fill="#95D0AD" d="M127.778 280.469c5.887-1.05 12.397-1.712 19.53-1.987-6.371 3.817-11.556 9.102-15.555 15.856l-4.035 9.081c11.416-9.932 24.498-15.344 39.243-16.238 9.424-.603 18.729.568 27.912 3.512 12.445 6.078 25.407 13.821 38.886 23.233a272.477 272.477 0 0 1 8.05 5.755l18.57.368.003-5.709.707-139.412-1.136-.006c-31.685-.259-59.907 9.646-84.668 29.715-24.384 19.785-40.22 45.061-47.507 75.832z"/><path fill="#559B75" d="M346.669 205.857c-24.489-20.396-52.586-30.724-84.289-30.982l-1.291.053-.707 139.411-.002 5.71 18.631-.093-.129.086.026-.001a346.038 346.038 0 0 1 7.595-5.322c13.281-9.075 25.853-16.433 37.709-22.074 8.597-3.209 17.642-4.685 27.138-4.429 16.153.431 30.401 6.084 42.744 16.961-.76-2.645-2.099-5.669-4.016-9.073-4.046-6.819-9.202-12.164-15.468-16.036 6.668.39 12.912 1.121 18.727 2.192-6.901-30.887-22.457-56.355-46.668-76.403z"/><path fill="#211E1F" d="M307.49 249.428c-1.766-2.529-4.158-4.067-7.176-4.613-2.937-.462-5.603.207-7.997 2.006-2.474 1.713-3.977 4.11-4.508 7.188-.448 2.996.211 5.759 1.978 8.288 1.684 2.444 4.037 3.94 7.055 4.486 2.937.462 5.642-.165 8.117-1.878 2.475-1.798 3.939-4.236 4.387-7.316.449-2.996-.17-5.716-1.856-8.161z"/><path fill="#FFF" d="M292.112 248.023c.006-.5-.193-.836-.601-1.009-.91.82-1.573 1.56-1.991 2.221l.609.385c.489.09.94-.028 1.353-.355.413-.328.623-.742.63-1.242z"/><path fill="#393537" d="M226.744 252.42c-.425-2.861-1.846-5.135-4.263-6.822-2.416-1.686-5.015-2.249-7.795-1.689-2.906.427-5.183 1.859-6.832 4.296-1.649 2.463-2.196 5.113-1.643 7.95.526 2.967 1.998 5.294 4.414 6.981 2.289 1.684 4.887 2.261 7.794 1.728 2.78-.56 4.994-2.071 6.643-4.534 1.648-2.437 2.21-5.074 1.682-7.91z"/><path fill="#FFF" d="M210.413 246.869a1.335 1.335 0 0 0-.334-.909c-.725.461-1.375 1.08-1.95 1.857.253.266.56.401.919.406.359.006.669-.134.929-.418.286-.257.432-.569.436-.936z"/></g><path fill="#95D0AD" d="m-14.518-5.148 29.036-1.209S11.256 4.016 2.426 5.186s-13.731-4.17-16.944-10.334z" transform="translate(217.371 264.167)" style="display:block"/><path fill="#95D0AD" d="m14.521 6.055-29.042-1.09S-10.448-5.118-1.553-5.586C7.342-6.055 11.805-.343 14.521 6.055z" transform="translate(218.339 235.522)" style="display:block"/><path fill="#559B75" d="m-14.522-5.293 29.044-.982S11.18 4.072 2.34 5.173C-6.499 6.274-11.357.895-14.522-5.293z" transform="translate(297.514 265.984)" style="display:block"/><path fill="#559B75" d="m14.469 4.186-28.938 2.7S-11.742-3.641-2.984-5.263c8.759-1.623 13.928 3.459 17.453 9.449z" transform="rotate(3 -4382.16 5853.008)" style="display:block"/><path fill="#282527" d="M64.712-35.908c-12.331-.586-24.462.177-36.535 2.877-8.197 2.152-15.468 6.48-24.075 6.568l-4.89-.31v-.001h-.037l-.07-.005v.005l-3.491-.005c-3.851-.091-6.94-.649-9.268-1.67-8.759-3.841-17.54-6.654-26.973-8.252-12.854-1.729-25.695-1.338-38.641-1.335-3.128.019-6.296.148-9.504.387l-18.328 1.693-.099 1.407.317 10.822c.056.144.192.297.407.457 1.845.699 3.368 1.881 4.568 3.549.802 1.215 1.389 2.889 1.761 5.019 1.331 8.886 2.802 16.143 4.413 21.772 2.232 7.584 5.368 15.537 12.142 20.181 11.612 7.961 26.921 8.111 40.285 4.708 8.407-2.063 15.864-5.693 21.394-12.505 5.848-7.42 10.056-15.37 12.625-23.853l1.305-5.05c.927-3.212 2.828-5.126 5.706-5.742l1.099-.153 2.808.397c2.788.686 4.628 2.656 5.522 5.91l1.092 5.083c1.483 6.907 4.946 13.772 8.716 19.688 5.905 9.268 13.438 14.879 24.043 17.817 13.011 3.605 28.882 4.879 40.464-3.346 6.748-4.792 10.161-11.999 12.797-19.702 1.893-5.704 3.618-12.938 5.178-21.703.423-2.008 1.073-3.642 1.952-4.901 1.116-1.597 2.679-2.735 4.689-3.414.23-.204.347-.34.35-.411l.765-12.162c-14.126-1.293-28.32-3.147-42.487-3.82zm-166.556 8.354.026-2.197 9.374.168-.025 2.171c-4.215-.116-7.34-.163-9.375-.142zM-17.16-7.623c-.296 4.713-1.418 9.3-3.364 13.758-2.054 4.888-4.94 9.176-8.658 12.867-2.487 2.533-5.667 4.513-9.538 5.941-4.76 1.665-9.336 2.72-13.725 3.166-3.306.456-6.66.577-10.063.362-5.36-.341-9.975-1.507-13.844-3.5-2.674-1.472-5.126-3.589-7.355-6.347-4.429-5.802-7.18-12.3-8.254-19.497l-.847-9.004c-.15-2.325-.149-4.137.003-5.436.471-5.071 2.754-8.968 6.849-11.692 3.036-2.057 6.612-3.43 10.727-4.118 3.241-.593 6.86-.875 10.857-.849l21.025.353c6.229.386 11.503 1.515 15.822 3.384 2.754 1.262 4.911 2.779 6.471 4.551 1.772 2.002 2.894 4.363 3.366 7.084.554 2.875.731 5.867.528 8.977zM90.74 2.439c-1.761 9.617-7.25 20.733-16.414 25.253-12.329 6.081-31.149 3.461-42.469-3.867-5.945-3.849-10.208-10.327-12.733-16.846-2.898-7.268-3.661-15.142-2.065-22.808 2.387-11.46 16.387-13.967 26.21-14.181l21.013.352c7.382.18 15.381 1.286 21.463 5.808 3.957 2.867 6.069 6.816 6.337 11.847.215 4.839-.472 9.693-1.342 14.442zm1.451-26.537.025-2.185 9.374.169-.038 2.171-9.361-.155z" transform="translate(261.607 271.583)" style="display:block"/></g><g style="display:block"><path fill="#67AB83" d="M316.976 232.318c-10.5.002-19.497 8.692-20.496 14.692 18.497-14.504 30.498-6.506 41.5-.008-.001-5-10.504-14.686-21.004-14.684z"/><path fill="#67AB83" d="M316.976 232.318c-10.5.002-19.497 8.692-20.496 14.692 18.497-14.504 30.498-6.506 41.5-.008-.001-5-10.504-14.686-21.004-14.684z"/><path d="M316.976 232.318c-10.5.002-19.497 8.692-20.496 14.692 18.497-14.504 30.498-6.506 41.5-.008-.001-5-10.504-14.686-21.004-14.684z" fill="none"/></g><g style="display:block"><path fill="#377959" d="M400.538 232.343c-10.5.002-19.56 9.65-20.558 15.65 18.497-14.505 30.498-6.507 41.5-.01-.001-5-10.442-15.642-20.942-15.64z"/><path fill="#377959" d="M400.538 232.343c-10.5.002-19.56 9.65-20.558 15.65 18.497-14.505 30.498-6.507 41.5-.01-.001-5-10.442-15.642-20.942-15.64z"/><path d="M400.538 232.343c-10.5.002-19.56 9.65-20.558 15.65 18.497-14.505 30.498-6.507 41.5-.01-.001-5-10.442-15.642-20.942-15.64z" fill="none"/></g><path fill="#282527" d="M64.712-35.908c-12.331-.586-24.462.177-36.535 2.877-8.197 2.152-15.468 6.48-24.075 6.568l-4.89-.31v-.001h-.037l-.07-.005v.005l-3.491-.005c-3.851-.091-6.94-.649-9.268-1.67-8.759-3.841-17.54-6.654-26.973-8.252-12.854-1.729-25.695-1.338-38.641-1.335-3.128.019-6.296.148-9.504.387l-18.328 1.693-.099 1.407.317 10.822c.056.144.192.297.407.457 1.845.699 3.368 1.881 4.568 3.549.802 1.215 1.389 2.889 1.761 5.019 1.331 8.886 2.802 16.143 4.413 21.772 2.232 7.584 5.368 15.537 12.142 20.181 11.612 7.961 26.921 8.111 40.285 4.708 8.407-2.063 15.864-5.693 21.394-12.505 5.848-7.42 10.056-15.37 12.625-23.853l1.305-5.05c.927-3.212 2.828-5.126 5.706-5.742l1.099-.153 2.808.397c2.788.686 4.628 2.656 5.522 5.91l1.092 5.083c1.483 6.907 4.946 13.772 8.716 19.688 5.905 9.268 13.438 14.879 24.043 17.817 13.011 3.605 28.882 4.879 40.464-3.346 6.748-4.792 10.161-11.999 12.797-19.702 1.893-5.704 3.618-12.938 5.178-21.703.423-2.008 1.073-3.642 1.952-4.901 1.116-1.597 2.679-2.735 4.689-3.414.23-.204.347-.34.35-.411l.765-12.162c-14.126-1.293-28.32-3.147-42.487-3.82zm-166.556 8.354.026-2.197 9.374.168-.025 2.171c-4.215-.116-7.34-.163-9.375-.142zM-17.16-7.623c-.296 4.713-1.418 9.3-3.364 13.758-2.054 4.888-4.94 9.176-8.658 12.867-2.487 2.533-5.667 4.513-9.538 5.941-4.76 1.665-9.336 2.72-13.725 3.166-3.306.456-6.66.577-10.063.362-5.36-.341-9.975-1.507-13.844-3.5-2.674-1.472-5.126-3.589-7.355-6.347-4.429-5.802-7.18-12.3-8.254-19.497l-.847-9.004c-.15-2.325-.149-4.137.003-5.436.471-5.071 2.754-8.968 6.849-11.692 3.036-2.057 6.612-3.43 10.727-4.118 3.241-.593 6.86-.875 10.857-.849l21.025.353c6.229.386 11.503 1.515 15.822 3.384 2.754 1.262 4.911 2.779 6.471 4.551 1.772 2.002 2.894 4.363 3.366 7.084.554 2.875.731 5.867.528 8.977zM90.74 2.439c-1.761 9.617-7.25 20.733-16.414 25.253-12.329 6.081-31.149 3.461-42.469-3.867-5.945-3.849-10.208-10.327-12.733-16.846-2.898-7.268-3.661-15.142-2.065-22.808 2.387-11.46 16.387-13.967 26.21-14.181l21.013.352c7.382.18 15.381 1.286 21.463 5.808 3.957 2.867 6.069 6.816 6.337 11.847.215 4.839-.472 9.693-1.342 14.442zm1.451-26.537.025-2.185 9.374.169-.038 2.171-9.361-.155z" transform="translate(361.607 286.583)" style="display:block"/></g><path fill="#1E1C1C" d="M43.064 10.934a9.199 9.199 0 0 1-5.065 1.865l-79.776.004c-1.412.128-2.65-.675-3.715-2.408a10.996 10.996 0 0 1-1.414-3.863l-.299-2.424c-.16-1.375.03-2.803.569-4.281.639-1.66 1.6-2.543 2.885-2.653l79.608-9.977c1.412-.128 3.056.368 4.933 1.487 1.875 1.119 3.282 2.556 4.22 4.309 1.14 1.393 1.903 3.666 2.288 6.818.068.812.036 1.805-.098 2.977l-.221 1.637c-.506 2.873-1.811 5.043-3.915 6.509z" transform="rotate(-15 1780.364 -1217.89)" style="display:block"/><g clip-path="url(#e)" style="display:block" transform="rotate(-14 1472.162 -298.471)"><path fill="#1E1C1C" d="M165.559 134.302c1.237-.771 2.119-1.203 2.646-1.299l15.853-2.219c1.08-.191 2.029.03 2.848.665.82.625 1.266 1.48 1.336 2.567l.077 1.11c.072 1.076-.25 2.065-.965 2.964-.725.898-1.622 1.442-2.692 1.637l-14.309 2.302c-1.84.781-3.266 1.38-4.276 1.801-1.805.73-3.398 1.313-4.778 1.748-1.386.44-2.467.009-3.242-1.293a5.799 5.799 0 0 1-.584-1.382 5.868 5.868 0 0 1-.157-.667c-.067-1.007 1.46-2.767 4.581-5.281a40.381 40.381 0 0 1 3.662-2.653z"/><path fill="#333" d="m124.364 111.402-12.677-12.743c6.769-9.193 11.04-20.379 11.708-32.606 1.829-33.447-23.894-62.147-57.341-63.976C32.607.249 3.908 25.971 2.079 59.419.25 92.866 25.973 121.566 59.42 123.395c17.157.938 33.053-5.385 44.726-16.27l13.828 11.779 6.39-7.502zm-64.402 2.086c-27.985-1.53-49.507-25.541-47.977-53.526 1.53-27.986 25.542-49.508 53.527-47.978 27.985 1.53 49.508 25.543 47.977 53.528-1.53 27.985-25.542 49.506-53.527 47.976z"/><path fill="#865233" d="M192.868 157.951a12.015 12.015 0 0 1-2.607 8.841c-4.181 5.174-11.764 5.978-16.938 1.799l-53.988-42.22c-5.173-4.18-5.979-11.763-1.799-16.937 4.18-5.173 11.763-5.978 16.936-1.798l53.989 42.219a12.003 12.003 0 0 1 4.407 8.096z"/><path fill="#1E1C1C" d="M198.214 132.694c-2.553-2.547-5.811-3.571-9.771-3.074-4.057.516-7.601 2.42-10.632 5.708-1.896 2.002-3.264 4.168-4.114 6.497a4.318 4.318 0 0 0-1.282.776l-10.754 9.789a682.276 682.276 0 0 0-4.075 2.227c-1.696.96-3.145 1.846-4.348 2.655-1.21.813-1.554 1.932-1.034 3.357.156.429.39.872.703 1.325.156.223.295.403.418.541.591.548 2.216.587 4.84.134-.346.649-.358 1.417-.034 2.303.155.43.389.872.703 1.325.155.224.295.405.418.541.735.684 3.054.589 6.955-.285a39.815 39.815 0 0 0 4.347-1.211l.106-.04c.152.404.382.822.699 1.257.148.222.276.401.382.536.745.701 3.071.608 6.973-.278a34.839 34.839 0 0 0 4.353-1.211c1.357-.476 2.239-.896 2.646-1.261l11.673-11.04c.724-.646 1.123-1.413 1.237-2.285 1.686-2.556 2.672-5.318 2.941-8.293.32-4.115-.796-7.446-3.35-9.993z"/><path fill="#8B8B8B" d="M113.379 62.957c0 28.106-22.785 50.891-50.891 50.891-28.106 0-50.891-22.785-50.891-50.891 0-28.106 22.785-50.891 50.891-50.891 28.106 0 50.891 22.785 50.891 50.891z"/><path fill="#E0EEE4" d="M84.635 79.305h26.301c.198-.585.397-1.169.574-1.765a49.904 49.904 0 0 0 1.627-7.606H84.635v9.371zM84.635 46.997h26.246a52.39 52.39 0 0 0-4.223-9.371H84.635v9.371zM31.463 46.998h31.025v-9.371H18.821a50.505 50.505 0 0 0-4.209 9.371h7.479v22.937h-9.618c.435 3.2 1.17 6.336 2.184 9.371h7.434V93.61a50.531 50.531 0 0 0 5.278 6.044h4.094V46.998z"/><path fill="#BBCEC2" d="M33.168 99.654h29.32V48.7h-29.32v50.954zm0 0h29.32V48.7h-29.32v50.954zM-79.29-226.977h500v600h-500v-600zm0 600h500v-600h-500v600z"/><path fill="#BBCEC2" d="M20.39 48.7h-6.324a50.898 50.898 0 0 0-1.803 19.532h8.127V48.7zM15.254 81.008a51.547 51.547 0 0 0 5.136 10.161V81.008h-5.136zM84.635 68.231h28.688c.66-6.663-.037-13.286-1.902-19.53H84.635v19.53zM105.637 35.923c-5.017-8.006-12.205-14.669-21.001-18.914v18.914h21.001zM84.635 99.654h13.204c5.404-5.097 9.736-11.401 12.484-18.646H84.635v18.646zM62.488 12.054c-17.2.173-33.406 9.264-42.636 23.869l42.636.001v-23.87z"/><path fill="#E0EEE4" d="M82.931 101.359V16.234a50.08 50.08 0 0 0-5.782-2.128 49.646 49.646 0 0 0-12.956-2.04v89.293H29.201a49.457 49.457 0 0 0 18.742 10.41c17.129 5.087 35.164.542 47.996-10.41H82.931z"/></g><g mask="url(#f)" style="display:block"><path fill="#535353" d="M191.658 359.407c-12.898 0-23.358 10.46-23.358 23.359 0 16.349 23.358 46.715 23.358 46.715s23.36-30.366 23.36-46.715c0-12.899-10.461-23.359-23.36-23.359zm0 32.966a9.556 9.556 0 0 1-9.556-9.556c0-5.277 4.278-9.555 9.556-9.555s9.557 4.278 9.557 9.555c0 5.278-4.279 9.556-9.557 9.556z"/><path fill="#FFF" d="M191.71 360.775c-12.276 0-22.231 9.954-22.231 22.23 0 15.561 22.231 44.462 22.231 44.462s22.231-28.901 22.231-44.462c0-12.276-9.955-22.23-22.231-22.23zm0 31.375a9.095 9.095 0 1 1 0-18.188 9.095 9.095 0 0 1 0 18.188z"/><path fill="#EF5A28" d="M208.896 383.875c0 9.364-7.592 16.956-16.957 16.956-9.364 0-16.955-7.592-16.955-16.956s7.591-16.956 16.955-16.956c9.365 0 16.957 7.592 16.957 16.956z"/><path fill="#FFF" d="M189.006 394.113c-.78-.514-1.459-.838-1.982-1.329-1.731-1.62-3.407-3.299-5.102-4.957-.879-.86-1.364-1.895-.427-2.895.994-1.061 2.081-.655 3.027.272 1.073 1.053 2.246 2.017 3.224 3.151.955 1.108 1.604.866 2.493-.064 3.35-3.507 6.749-6.966 10.146-10.427.796-.811 1.67-1.577 2.832-.567 1.087.945.826 1.949-.032 2.864a482.849 482.849 0 0 1-5.849 6.125 394.695 394.695 0 0 1-6.331 6.412c-.546.538-1.262.902-1.999 1.415z"/></g></g></svg>